<?xml version="1.0" encoding="UTF-8" standalone="no"?>
<!-- Created with Inkscape (http://www.inkscape.org/) -->

<svg
   width="640"
   height="480"
   viewBox="0 0 169.33333 127"
   version="1.1"
   id="svg1"
   xml:space="preserve"
   sodipodi:docname="quartiers.svg"
   inkscape:version="1.3.2 (091e20ef0f, 2023-11-25)"
   xmlns:inkscape="http://www.inkscape.org/namespaces/inkscape"
   xmlns:sodipodi="http://sodipodi.sourceforge.net/DTD/sodipodi-0.dtd"
   xmlns="http://www.w3.org/2000/svg"
   xmlns:svg="http://www.w3.org/2000/svg"><sodipodi:namedview
     id="namedview1"
     pagecolor="#ffffff"
     bordercolor="#666666"
     borderopacity="1.0"
     inkscape:showpageshadow="2"
     inkscape:pageopacity="0.0"
     inkscape:pagecheckerboard="0"
     inkscape:deskcolor="#d1d1d1"
     inkscape:document-units="mm"
     inkscape:zoom="1.7283429"
     inkscape:cx="302.02339"
     inkscape:cy="199.03457"
     inkscape:window-width="2534"
     inkscape:window-height="1394"
     inkscape:window-x="0"
     inkscape:window-y="0"
     inkscape:window-maximized="0"
     inkscape:current-layer="layer1" /><defs
     id="defs1" /><g
     inkscape:label="Layer 1"
     inkscape:groupmode="layer"
     id="layer1"
     transform="translate(0,-169.99999)"><path
       style="opacity:1;fill:#739476;stroke:#739476;stroke-width:1.8897638;stroke-linecap:round;stroke-linejoin:round;stroke-dasharray:none;stroke-opacity:1;paint-order:markers fill stroke;fill-opacity:1"
       d="m 143.21322,379.74737 c -4.06888,-1.52294 -4.19593,-1.69787 -3.89229,-5.35934 0.29579,-3.56683 -0.51539,-4.92302 -4.36923,-7.30483 -1.04737,-0.64731 -2.28254,-1.90833 -2.74481,-2.80227 -1.89206,-3.65885 -22.25853,-22.89885 -29.22314,-27.60681 -3.054074,-2.06451 -20.60624,-11.57831 -23.993931,-13.00544 -2.837738,-1.19544 -7.212741,-1.31553 -9.722561,-0.26686 -1.024104,0.4279 -4.832902,3.03155 -8.463994,5.78589 -3.631093,2.75434 -6.801587,5.00789 -7.045543,5.00789 -1.298684,0 -4.9981,-6.8841 -13.19934,-24.56216 -4.490002,-9.67836 -4.117539,-10.25605 5.073538,-7.86909 2.934032,0.76198 4.687453,0.94562 5.625082,0.58914 2.677169,-1.01786 2.513611,-5.64238 -0.38268,-10.82005 -2.011051,-3.59514 -2.044281,-4.15699 -0.527875,-8.92535 0.641515,-2.01725 1.531693,-7.20561 1.978172,-11.52969 0.992452,-9.61171 1.790509,-11.82567 4.468083,-12.39528 2.765711,-0.58837 3.521978,-1.43807 7.831302,-8.79886 2.120791,-3.62254 4.06624,-6.71639 4.323219,-6.87521 0.476606,-0.29456 5.208574,2.206 6.932116,3.6632 0.523644,0.44273 1.123317,1.94685 1.332607,3.3425 0.325279,2.16911 0.883116,2.9831 3.842045,5.60627 1.903833,1.68781 5.674405,5.0665 8.379049,7.50821 3.518706,3.17664 6.434162,5.18368 10.249186,7.05568 6.079585,2.9832 27.199575,10.07111 31.541325,10.58532 4.87381,0.57723 10.22892,-0.26029 11.96767,-1.8717 0.83359,-0.77255 2.08803,-1.40443 2.78763,-1.40419 0.69961,2.5e-4 3.47298,-0.43644 6.16305,-0.97043 7.62289,-1.51316 13.26884,-0.64 26.64206,4.12027 26.02963,9.26538 31.1254,11.35167 41.65279,17.0533 2.15336,1.16626 4.3899,1.83868 6.94307,2.08744 2.07154,0.20183 4.2321,0.49695 4.80124,0.6558 1.19106,0.33246 4.23948,4.66202 3.67791,5.2236 -0.59332,0.59332 -6.47776,0.93658 -8.74955,0.51039 -1.48757,-0.27907 -2.42584,-0.94319 -3.35371,-2.37377 -1.52041,-2.34419 -4.48753,-4.05227 -5.18258,-2.98346 -0.24602,0.37832 -0.99637,2.51041 -1.66744,4.73797 -1.55339,5.15634 -2.5276,7.03099 -4.08771,7.86593 -0.68635,0.36732 -4.16641,0.88569 -7.73347,1.15191 -10.34588,0.77217 -19.38001,4.79748 -27.11139,12.07998 -2.68944,2.53328 -5.58173,4.77961 -6.4273,4.99184 -0.84559,0.21222 -2.88258,0.19891 -4.52665,-0.0296 -6.04086,-0.83959 -7.07135,-0.17794 -6.87164,4.41211 0.15809,3.63328 -0.60812,4.63449 -4.65694,6.08524 -3.83397,1.37378 -4.78888,3.00314 -5.28944,9.02534 -0.47669,5.7349 -3.16452,26.14857 -3.7149,28.21408 l -0.39256,1.47322 z"
       id="path3"
       transform="matrix(0.26458333,0,0,0.26458333,0,169.99999)" /><path
       style="fill:none;stroke:#c5cac6;stroke-width:0.717;stroke-dasharray:none;stroke-opacity:1"
       d="m 107.06398,195.79932 c 0.48087,0.80103 0.45033,1.75068 0.0361,2.66597 -0.55444,1.22496 -2.16549,1.52126 -2.58493,2.9193 -0.19738,0.65788 0.0943,1.70508 0.36547,2.28897 0.17554,0.37799 0.5957,0.29477 0.77451,0.66359 0.25507,0.52606 -0.15873,1.33791 0.56607,1.61376 0.84008,0.31976 1.77381,-1.12907 2.52581,-0.0399 0.26639,0.3858 0.27566,0.90901 0.56447,1.29701 0.39407,0.52943 1.32319,0.9389 1.29785,1.70287 -0.018,0.53756 -0.63834,0.75624 -0.92405,1.13099 -0.34214,0.44879 -0.28531,0.91042 -0.0873,1.42058 0.23303,0.60071 0.60324,2.0989 1.16923,2.40392 0.79708,0.42956 1.30471,-0.23629 2.07722,0.75306 0.30403,0.38938 0.56156,0.98636 0.6294,1.45693 0.0555,0.38416 0.03,0.6731 0.0249,1.09279 -0.005,0.49793 -0.0938,0.82603 -0.11614,1.33558 -0.0279,0.6383 8.8e-4,1.05881 -0.004,1.69988 -0.005,0.45737 -0.079,0.76318 -0.11006,1.21419 -0.041,0.59604 -0.0442,1.0252 -0.27234,1.57844 -0.32005,0.77599 -0.7541,1.50412 -0.81996,2.30697 -0.0308,0.37586 -0.0115,0.62219 -0.009,0.97135 0.004,0.25757 0.033,0.48653 -0.0594,0.7285 -0.3232,0.84626 -1.28302,1.67364 -2.00772,2.18555 -0.68307,-0.93953 -1.41561,-2.30932 -2.22506,-3.2783 -0.31798,-0.38064 -0.74165,-0.91513 -1.29607,-0.82491 -1.44595,0.2352 -2.0671,2.13204 -2.88491,3.11911 -0.5743,0.69315 -1.51004,0.90062 -2.20992,1.42575 -0.65226,0.48938 -1.07254,1.27294 -1.43173,1.98671 -0.541896,1.07693 -1.04625,2.81434 0.21278,3.39974 -0.19903,0.54668 -0.446939,1.05403 -0.976609,1.45178 -0.926237,0.69559 -2.3384,1.44882 -3.151649,2.06938 -0.454666,-0.63857 -1.261217,-1.76534 -1.256427,-2.67121 0.0074,-1.52551 0.799567,-3.15225 1.165929,-4.61395 0.350846,-1.39974 0.310217,-2.82722 1.037111,-4.12813 0.402921,-0.72108 1.284952,-1.59157 2.088881,-1.78325 0.417212,-0.0995 1.044764,0.13337 1.404344,-0.13207 0.43058,-0.31775 0.20876,-0.80573 0.41795,-1.23086 0.40722,-0.8275 0.62949,-1.39405 0.46665,-2.43925 -0.28902,-1.85535 -3.616099,-2.04409 -4.614086,-3.52114 -0.608663,-0.90082 -1.240225,-2.11197 -1.514286,-3.15689 -0.132844,-0.50627 -0.210171,-0.95415 -0.334272,-1.45702 -0.797354,-3.23105 -1.48028,-6.52428 -2.028423,-9.83495 -0.264015,-1.59453 0.612986,-2.20261 1.025126,-3.64256 0.106204,-0.37114 7.21e-4,-0.87425 0.358816,-1.08405 0.954963,-0.55961 1.992657,1.3442 2.996886,1.04124 0.511995,-0.15448 0.71334,-0.54943 1.21418,-0.70977 0.44676,-0.14308 0.777704,-0.0724 1.121918,-0.47529 0.742141,-0.86879 1.368751,-2.76255 2.420311,-3.19128 0.40949,-0.16693 0.79856,-0.0106 1.19312,0.0276 0.81355,0.0774 3.06058,0.59857 3.71619,0.0685 0.56633,-0.45776 0.43211,-1.28525 0.58566,-1.86933 0.16909,-0.64329 0.64023,-0.9803 0.96177,-1.57845 0.27811,-0.51735 0.0629,-1.03006 0.27349,-1.57359 0.58653,-1.51336 2.85985,-1.65409 4.17639,-1.90128 0.39554,-0.0743 0.80567,-0.31904 1.20897,-0.30775 0.66992,0.0187 1.59515,1.95697 2.3122,2.37702 1.5547,0.91078 2.8995,2.2446 4.49247,3.06004 0.64364,0.32946 1.27598,0.51604 1.94272,0.73383 0.77356,0.25269 1.51185,0.5578 2.18031,1.08549 0.73409,0.57951 0.73036,1.71449 1.40145,2.24044 0.35541,0.27852 0.74339,0.14616 1.13119,0.42954 0.65394,0.47784 1.12436,1.75401 2.0865,1.74073 0.81075,-0.0106 1.79583,-0.74441 2.42839,-1.19181 0.23045,-0.16301 0.60915,-0.50967 0.89817,-0.2881 0.57562,0.44133 -0.009,1.80016 0.63163,2.19174 0.42186,0.25769 1.33743,-0.20078 1.86992,-0.0763 1.37352,0.32094 2.7623,0.79993 4.12823,1.19356 0.58097,0.16742 1.27846,0.34142 1.82128,0.53861 1.84139,0.66897 4.33748,2.36185 6.07095,3.24786 0.45272,0.23141 0.86944,-0.0553 1.31011,0.0731 0.68985,0.20112 0.64162,1.08336 1.26217,1.44599 0.91578,0.53515 2.46168,0.62691 3.49868,0.8727 1.39395,0.33036 2.95209,0.44016 4.24966,1.02343 0.57431,0.25818 1.7089,0.12425 1.94019,0.95361 0.23129,0.82931 -1.04901,1.88704 -1.42975,3.01508 -0.94693,2.80558 -3.38878,5.48141 -5.34683,7.6494 -0.59016,0.65345 -1.29317,1.94329 -2.20615,2.06009 -1.11863,0.14307 -2.63647,-0.25959 -3.76398,-0.38038 -2.46271,-0.26383 -4.90589,-0.61582 -7.40657,-0.98418 -1.22158,-0.17995 -2.89463,-0.17499 -4.00681,-0.67352 -1.3439,-0.60235 -2.64583,-2.17358 -3.76398,-3.1447 -0.37569,-0.32628 -0.93706,-1.02841 -1.45694,-1.06122 -0.53588,-0.0337 -0.88145,0.75797 -1.34047,0.96452 -0.51258,0.23066 -1.27183,-0.30288 -1.68424,-0.0892 -1.24779,0.64658 -1.94251,2.07452 -3.41058,2.58418 -1.07059,0.37167 -2.12154,-0.40131 -3.13139,0.43761 -1.07381,0.89204 -0.49766,1.83866 -0.65901,2.958 -0.12309,0.85412 -0.931,1.43577 -1.0123,2.30697 -0.0989,1.05893 0.54565,2.01519 0.24254,3.15688 -0.12916,0.48637 -0.47432,0.85283 -0.61474,1.33559 -0.24511,0.84252 -0.0435,2.12259 -0.53469,2.86628 -0.42329,0.64094 -1.4878,0.25684 -1.56841,1.14291 -0.0821,0.90152 -0.36729,3.11769 0.11772,3.84444 0.45762,0.68579 1.15712,-0.0999 1.73943,0.40625 0.23839,0.20721 -0.0115,0.68724 -0.0182,0.96796 -0.0115,0.58162 0.43683,0.8541 0.40277,1.45704 -0.0265,0.46896 -0.0482,0.66216 -0.068,1.09276 -0.0238,0.51772 -0.0521,0.85267 -0.38674,1.33562 -0.54991,0.7939 -1.77079,1.63172 -2.05728,2.5498 -0.18745,0.60064 0.65758,0.87328 0.81967,1.37027 0.12294,0.37666 -0.17545,0.76577 -0.31358,1.05811 0.92289,0.4925 1.85638,0.1542 3.03547,0.11947 0.42538,-0.0115 1.27744,-0.43162 1.61499,-0.15639 0.70915,0.57827 0.26012,1.61095 0.69056,2.30911 0.67676,1.09773 1.96191,1.73549 2.52836,2.94872 0.57663,1.235 0.54127,3.20863 1.35846,4.12826 M 60.681939,182.07899 c 0.390145,-0.8366 1.838745,-2.31614 2.671223,-3.0082 0.734347,-0.61051 1.805428,-0.92319 2.671222,-1.29261 0.600499,-0.25625 1.49967,-0.94243 2.148713,-0.80095 0.405785,0.0885 0.453442,0.99311 0.522494,1.33777 0.212236,1.05927 0.707947,1.82119 1.141128,2.79262 0.143091,0.32094 -0.02678,0.74688 0.245735,1.00266 0.790482,0.74201 2.046422,-0.16135 2.719753,1.07243 0.509808,0.93417 -0.05709,1.97399 0.03535,2.90309 0.05464,0.54907 0.462794,0.83037 0.642018,1.33562 0.129161,0.36425 0.06044,0.70202 0.07759,1.09276 0.01714,0.39107 0.08142,0.61598 0.105749,0.97134 0.03092,0.44986 -0.10544,0.87479 0.205548,1.31455 0.368979,0.52187 1.019736,0.79024 1.482789,1.25626 0.296715,0.29861 0.466988,0.67675 0.88367,0.79035 0.427608,0.11656 1.482463,-0.24837 1.808353,0.11656 0.693375,0.77659 0.171715,2.34891 0.49448,3.17967 0.178103,0.45841 0.82536,0.86194 0.818356,1.35604 -0.0042,0.32703 -0.393945,0.5576 -0.582721,0.72867 0.328996,0.45064 0.616197,0.74079 0.689232,1.33562 0.08096,0.6592 -0.229977,0.95141 -0.446421,1.45703 1.129761,0.54368 2.137179,-0.37337 3.217791,0.36764 0.5245,0.35965 0.698366,1.35702 0.934818,1.93932 0.243605,0.59993 0.757519,0.75213 0.995231,1.25221 0.356782,0.75058 0.09166,1.51045 0.316016,2.26893 0.775681,-0.67582 1.297564,-1.28509 2.102156,-1.96519 0.424708,-0.359 1.080252,-0.34372 1.36634,-0.85472 0.421317,-0.75248 0.189263,-2.43344 0.8193,-3.08223 0.693131,-0.71371 1.952568,-1.13123 2.87592,-1.30871 0.980428,-0.18841 1.609521,-0.44556 2.428387,-0.68137 m -9.713525,8.01363 c 0.162071,0.42328 0.157048,0.8196 0.547602,1.32429 0.283599,0.36643 0.957083,0.6253 1.031219,1.10897 0.159952,1.04353 -0.814117,2.01876 -0.458872,3.15202 0.235953,0.75273 1.459191,1.34916 1.461989,2.18554 0.0011,0.40568 -0.349056,0.82793 -0.457941,1.21419 -0.299811,1.0633 -0.19631,3.03408 -0.878039,3.83322 -0.547878,0.64225 -1.792267,0.45258 -2.057288,1.50921 -0.184474,0.73547 -0.124558,1.24327 -0.155237,1.94271 -0.07121,1.6252 -0.351059,2.22186 -1.388922,3.52115 -0.230909,0.28907 -0.636787,1.06766 -1.042918,1.06766 -0.276763,0 -0.485366,-0.39146 -0.625459,-0.58255 -0.452939,-0.61788 -0.882214,-1.27627 -1.44176,-1.80985 -1.180923,-1.12617 -2.943401,-1.95425 -3.887734,-3.30004 -0.981891,-1.39931 -1.452839,-3.87459 -2.623061,-5.04827 -0.469358,-0.47075 -1.34493,0.28463 -1.865328,0.39779 -0.374458,0.0813 -0.695735,0.0477 -1.092767,0.0475 -0.846342,-2.7e-4 -1.631606,-0.15167 -2.428379,-0.48475 -1.016874,-0.4251 -2.041724,-1.94631 -2.510544,-2.91497 -0.205594,-0.42482 -0.351412,-1.18541 -0.731226,-1.48449 -0.297756,-0.23446 -0.898988,-0.073 -1.250736,-0.21539 0.230983,-0.6034 0.524392,-1.14179 0.42732,-1.82128 -0.116924,-0.81805 -0.737195,-1.58303 -0.912609,-2.42838 -0.236769,-1.14104 -0.478894,-2.28935 -0.657323,-3.39972 -0.108351,-0.67416 -0.05279,-1.6598 -0.382892,-2.26884 -0.304747,-0.56237 -1.154196,-0.21181 -1.558589,-0.52717 -0.512776,-0.3999 -0.0046,-1.56338 -0.697863,-1.86608 -0.618052,-0.26983 -1.302784,0.2482 -1.83948,-0.35469 -0.446618,-0.50174 -0.702545,-1.40387 -0.802803,-2.02551 -0.355618,-2.20515 -0.85133,-4.60662 -0.85133,-6.79947 0,-0.37513 0.07712,-0.62294 0.10101,-0.97136 0.02816,-0.41131 -0.003,-0.7689 0.01561,-1.21417 0.01622,-0.37051 0.08202,-0.62483 0.105748,-0.97137 0.0254,-0.3718 0.003,-0.7052 0.01231,-1.09276 0.02861,-1.1686 0.39175,-2.44893 0.656847,-3.64257 0.210292,-0.94684 0.318108,-2.28528 0.762337,-3.13711 0.261118,-0.50071 0.940845,-0.20883 1.371683,-0.11572 1.299632,0.28089 2.134604,0.37713 2.428363,1.7958 m 4.568675,22.83058 v 0 m -7.968459,10.55949 c -0.853855,0.65812 -1.955055,1.4 -2.914051,2.06103 -0.395547,0.27265 -0.988716,0.54596 -1.206032,0.98578 -0.433227,0.87672 1.218734,1.93858 0.457651,2.72802 -0.627894,0.65126 -1.465788,0.74175 -2.16567,1.21455 -0.792978,0.53567 -1.443886,1.50631 -2.185549,2.08022 -0.395885,0.30637 -1.047835,0.23916 -1.262336,0.68203 -0.305116,0.62998 0.02311,1.83743 0.05296,2.5117 0.03857,0.87499 0.161993,1.8033 0.227556,2.67121 0.03092,0.40866 0.216367,1.21534 -0.113869,1.6266 -0.260015,0.32375 -1.110183,0.26277 -1.454019,0.29548 -0.34365,0.0328 -0.624342,0.0352 -0.971359,0.0154 -0.572937,-0.0329 -1.050589,-0.30817 -1.578441,-0.57188 -0.361679,-0.18067 -1.354037,-0.80195 -1.685628,-0.32087 -0.257966,0.37431 0.02496,0.943 -0.117533,1.38367 -0.35323,1.09345 -1.13121,1.84115 -1.009575,3.03547 0.07484,0.73539 0.03398,1.58286 0.174818,2.30696 0.129928,0.66818 0.685482,1.12649 0.455891,1.82129 -0.170624,0.51634 -0.456809,1.15223 -0.980159,1.367 -0.765768,0.31426 -1.398803,0.10078 -2.05888,0.70424 -0.5241,0.47909 -1.06649,1.96248 -1.710727,2.13993 -0.527881,0.14537 -0.964565,0.13409 -1.446152,0.15514 -0.311282,0.0146 -0.535625,0.0106 -0.849939,0.004 -0.964809,-0.025 -2.110482,-0.50656 -3.035472,-0.80806 -0.428482,-0.13974 -0.790131,-0.26947 -1.214188,-0.40127 -1.785046,-0.55472 -3.843281,-1.2232 -5.462061,-2.30594 -0.756355,-0.50585 -1.454524,-1.37835 -2.187326,-1.97071 -0.646564,-0.52262 -1.522197,-1.02892 -1.990868,-1.69668 -0.243502,-0.34694 -0.174128,-1.04379 -0.368749,-1.42364 -0.286354,-0.55893 -0.989068,-0.79021 -1.525794,-1.08849 -0.299882,-0.16664 -0.711621,-0.49587 -1.066903,-0.35187 -0.34812,0.14104 -0.522311,0.63199 -0.706218,0.94202 -0.54839,0.92438 -1.091482,1.87217 -1.645258,2.79197 -0.484357,0.80453 -1.114438,0.14785 -1.532145,0.74939 -0.944227,1.35991 -0.662251,3.42066 -0.933881,4.95795 -0.155963,0.8827 -0.59733,1.80811 -0.705285,2.67123 -0.125802,1.0058 0.937049,1.50658 1.015191,2.5498 0.02235,0.29902 0.160493,0.64205 0.0326,0.93226 -0.187244,0.42493 -0.794906,0.16905 -1.136154,0.0842 -0.822744,-0.20399 -2.5588146,-0.95477 -3.0062281,0.21017 -0.2292977,0.597 0.5958621,1.76161 0.8473071,2.29432 0.790727,1.67515 1.477602,3.36386 2.364668,4.97817 0.321262,0.58464 0.708575,1.55646 1.374483,1.80038 0.455937,0.167 0.984339,-0.35296 1.333837,-0.60323 0.980603,-0.70226 2.356571,-2.07882 3.521143,-2.37744 1.056606,-0.27095 2.152556,0.31136 3.035474,0.81595 1.907827,1.09031 4.086033,2.01827 5.828102,3.36101 2.263569,1.74469 4.435361,3.9872 6.417689,6.02299 0.289016,0.29681 0.400369,0.65517 0.659282,0.9718 0.439851,0.53795 1.062525,0.69401 1.47379,1.19659 0.531401,0.64939 -0.172278,1.2689 0.109726,1.88716 0.361802,0.79326 1.337479,0.6678 1.825493,1.01921 0.372546,0.26827 0.159163,0.67698 0.684579,0.8401 0.198096,-1.0514 0.36021,-2.20645 0.536818,-3.39973 0.240457,-1.62448 0.48757,-3.51489 0.657232,-5.0996 0.0632,-0.59089 0.0091,-1.39139 0.250053,-1.92471 0.342868,-0.75718 1.955805,-0.48016 2.368032,-1.59642 0.223194,-0.6044 -0.200696,-1.34125 0.08754,-1.74626 0.225642,-0.31708 0.763484,-0.0724 1.078534,4.8e-4 0.618556,0.14308 1.519535,0.17094 2.064113,-0.16565 0.954189,-0.58975 1.627243,-1.64177 2.549799,-2.30172 1.075182,-0.76912 2.668514,-1.35041 3.885412,-1.80142 1.276475,-0.47308 3.242476,0.0968 4.354861,-0.74883 0.837405,-0.63657 0.920551,-2.28177 1.351818,-3.19295 0.826677,0.31695 0.559789,1.0675 1.337952,1.34731 0.632944,0.22757 1.26373,0.25598 1.940365,0.22635 0.614058,-0.0269 1.014716,-0.25735 1.699862,-0.0948 0.654629,0.15522 1.025108,0.82785 1.466109,1.31386 0.768688,0.84718 1.585265,1.54592 2.540709,2.18067 1.911241,1.26974 4.634727,1.7495 6.799463,2.47373 1.379258,0.46145 2.747895,0.95599 4.128246,1.41657 0.824534,0.2751 1.493101,0.49501 2.064123,0.84993 0.543787,-0.64697 0.95012,-0.78126 1.699861,-1.21421 -0.933684,-0.63812 -3.070577,-0.99769 -3.961577,-1.82053 -0.322394,-0.29772 0.04578,-0.71484 -0.145698,-1.05396 -0.232531,-0.4122 -0.84625,-0.67187 -1.235171,-0.92985 -0.888015,-0.58912 -2.683649,-1.29251 -3.021607,-2.38809 -0.214959,-0.69686 0.51478,-1.68858 0.784544,-2.30688 0.603146,-1.38251 1.242196,-2.75009 1.855934,-4.12824 0.365214,-0.82005 0.740192,-1.47306 0.866802,-2.18555 -0.754059,-0.0953 -2.039963,-0.0146 -2.792644,-0.58517 -3.071101,-2.32898 -6.055642,-4.84654 -9.713498,-6.22458 -1.42243,-0.53589 -2.891416,-0.71942 -4.371085,-0.94569 -0.768751,-0.1176 -1.320551,-0.62276 -2.064127,-0.82231 -0.840786,-0.22561 -1.72975,-0.18717 -2.5498,-0.26522 -0.387054,-0.0369 -0.613278,-0.008 -0.971345,-0.0254 -0.371474,-0.0163 -0.608518,-0.081 -0.971346,-0.10577 -0.56891,-0.039 -0.750263,0.12629 -1.322402,-0.11932 -0.927287,-0.39807 -0.562041,-2.26153 -1.194325,-3.01027 -0.498391,-0.59016 -1.91369,-0.63686 -2.582873,-0.76664 M 153.93129,219.84034 c 0.48816,0.48785 1.58688,0.73845 1.33589,1.49624 -0.35091,1.0595 -1.91887,2.00177 -2.04764,2.99663 -0.11137,0.86091 -0.0165,1.41409 -0.0163,2.18556 1.9e-4,0.48878 0.0146,0.85456 0.0916,1.33561 0.17152,1.05957 0.27316,1.8483 0.27275,2.91405 -2.3e-4,0.56466 0.0762,1.69384 -0.33297,2.1356 -0.52343,0.56502 -1.87422,-0.66936 -2.27585,-0.028 -0.34267,0.54715 -0.40087,1.84442 -0.43097,2.38491 -0.0196,0.35043 -0.0815,0.61109 -0.10616,0.97135 -0.0428,0.62536 0.2233,1.72174 -0.39312,1.99088 -0.81701,0.35669 -1.6341,-0.009 -2.41037,-0.0435 -1.18437,-0.0518 -3.32117,-0.67067 -4.23701,0.15667 -1.28391,1.15982 -1.53436,3.16581 -2.61025,4.44115 -0.72883,0.86395 -1.6396,0.78336 -2.50024,1.22879 -0.85744,0.4438 -1.49248,1.57307 -1.91438,2.4251 -0.73377,1.48178 -0.26647,3.64561 -1.04003,5.07898 -0.50735,0.94014 -1.96805,2.26962 -2.87548,2.83227 -0.8095,0.50195 -1.54613,0.63015 -2.18553,1.31658 -0.78393,-0.81446 -2.60138,0.67191 -3.27782,1.33749 -0.7289,0.7172 -1.55137,2.07108 -1.54558,3.15502 0.004,0.71629 0.40577,1.48202 0.36228,2.18555 -0.0222,0.36271 -0.28483,0.6117 -0.25866,0.97135 0.0763,1.04876 0.71225,1.32935 0.71296,2.42837 -0.94084,0 -1.93755,-0.0379 -2.91405,0.004 -0.8536,0.0374 -1.52536,0.40855 -2.42838,-0.004 -1.85446,-0.84591 -2.83625,-2.60064 -5.09959,-2.78268 -0.82542,-0.0664 -1.30474,-0.0106 -2.06413,-0.0106 -1.02614,0 -1.72609,0.20706 -2.6712,0.36239 -0.65726,0.10804 -1.6493,0.22855 -2.30697,0.0458 -1.02222,-0.28401 -2.61293,-1.21503 -3.52114,-1.74521 -0.51822,-0.30254 -1.32338,-1.01486 -1.94271,-1.01884 -0.68312,-0.004 -1.20769,1.07828 -1.70034,1.45514 -0.68209,0.52177 -1.59708,0.61997 -2.306469,1.09914 -0.664809,0.44907 -1.287066,1.36242 -2.064125,1.5984 -0.904267,0.27461 -2.440002,-1.11723 -3.278217,-1.38272 -0.522858,-0.16559 -0.746159,0.32588 -1.225145,0.33306 -0.617373,0.008 -1.049415,-0.41 -1.567589,-0.62575 -0.49557,0.95165 0.116314,1.72284 0.777049,2.54981 1.207671,1.51137 2.984509,2.57639 4.686807,3.4297 1.727667,0.86605 3.264289,1.18787 5.099589,1.31649 0.3195,0.0222 0.53507,0.0782 0.84993,0.0996 0.40737,0.0278 0.6777,-0.005 1.09277,0.0217 0.36102,0.0248 0.60211,0.0895 0.97136,0.10564 0.35287,0.0157 0.61827,-0.005 0.97134,0.0398 0.71927,0.0936 1.37961,0.27941 2.06413,0.42496 0.65209,0.13859 1.62717,0.52943 2.30518,0.45458 0.54345,-0.06 0.78114,-0.69052 1.33785,-0.77517 0.71249,-0.10833 1.27968,0.39125 1.94223,0.38775 0.46032,-8.9e-4 0.78812,-0.42702 1.21419,-0.54946 0.89763,-0.25793 1.03076,0.004 1.82128,-0.46347 0.70007,1.07489 2.09436,0.67064 3.15689,-0.0538 0.38585,-0.2631 0.92604,-0.16788 1.26236,-0.43529 0.50497,-0.40148 -0.13714,-1.17439 0.68035,-1.17484 0.42552,-2.3e-4 0.4412,0.46524 0.76655,0.61939 0.82678,0.39171 1.95189,0.88799 2.85801,0.38484 0.59813,-0.33209 0.19034,-1.03731 0.33709,-1.52589 0.24627,-0.81975 0.99175,-1.30086 1.01652,-2.0641 m -40.675861,-45.89674 0.728505,0.84993 c -0.668494,0.39155 -1.583802,0.64661 -1.273108,1.69987 0.28505,0.96642 1.525296,1.44916 1.803193,2.42361 0.13116,0.46012 -0.382447,0.81165 -0.237035,1.34046 0.130237,0.47379 0.575155,0.75781 0.721775,1.21411 0.113547,0.35339 -0.02543,0.72359 0.07111,1.09275 0.363669,1.39 1.296145,3.37282 1.949548,4.4925 l 0.485673,-0.36425 c 0.346439,0.52357 0.794047,0.91347 0.813684,1.57847 0.0283,0.95877 -0.923957,1.63158 -0.498062,2.65986 0.470021,1.13474 2.476317,0.8566 2.265945,2.31829 -0.135749,0.94355 -1.469916,1.67401 -1.974388,2.5499 -0.455546,0.79096 -0.844118,1.61266 -1.245757,2.42821 -0.151665,0.30786 -0.323241,0.73863 -0.709769,0.7715 -1.854736,0.15762 -2.27208,-2.01212 -3.33828,-2.83217 -0.457982,-0.35225 -1.53106,-0.16317 -2.112838,-0.38338 -0.98633,-0.37334 -2.218364,-1.36795 -3.031251,-2.03611 -0.903621,-0.74272 0.215691,-2.08577 0.632854,-2.92631 0.170772,-0.34407 0.475447,-0.78864 0.161521,-1.13719 -0.612011,-0.67944 -1.578197,-0.58661 -2.377034,-0.87214 -0.897283,-0.32072 -1.735281,-0.94998 -2.549806,-1.43895 -2.496221,-1.49848 -4.745559,-3.35222 -7.04229,-5.13003 -1.333041,-1.03185 -2.812173,-2.22871 -4.37107,-3.56019 -1.558896,-1.33144 -2.523951,-0.76523 -3.072004,-1.37726 -0.878419,-0.98095 -1.351511,-2.99414 -1.889202,-4.21115 -0.667148,-1.51009 -1.599866,-2.9298 -2.274909,-4.37109 -0.689967,-1.47317 -1.124049,-3.0935 -1.697428,-4.61391 -0.26268,-0.6965 -0.543339,-1.51641 -0.82351,-2.18553 -0.362644,-0.86607 -0.838951,-1.34019 -1.413477,-2.06413 0.577373,-0.69006 0.282971,-1.15987 -0.121355,-1.82128 0.540169,-0.33545 1.872169,-0.47527 2.107498,-1.10898 0.432217,-1.16383 -0.959101,-2.65878 -0.739198,-3.85608 0.09779,-0.53264 0.892652,-0.69474 1.302907,-0.86304 m 56.459759,28.65461 0.48568,-0.24286 c 0.22135,0.74887 0.20769,1.32999 -0.12179,2.18556 -0.13859,0.35995 -0.67446,1.25631 -0.45634,1.62471 0.22566,0.38119 1.26968,-0.21645 1.67099,-0.13251 0.71363,0.14936 2.41882,0.84952 2.6344,1.556 0.16997,0.55692 0.15342,0.98245 0.15824,1.56568 m -35.939981,-5.46385 c -0.196416,0.8284 -0.798339,1.0797 -0.831857,1.94271 -0.03179,0.81745 0.809964,1.27619 0.908113,2.0641 0.119525,0.95982 -0.678136,2.29942 -0.804782,3.1569 m 9.349262,-2.06413 v 0.4857 m 1.578441,0.8499 c 0.431458,0.63943 0.872464,1.59945 1.589778,2.08314 0.615243,0.41485 1.808173,0.62743 2.417058,0.70949 m 0.971346,1.45703 c 0.02935,0.90039 0.838873,0.84646 1.562344,1.19647 0.318918,0.1543 0.430356,0.5259 0.771793,0.67307 0.480344,0.20705 1.14884,-0.23312 1.447647,0.33576 0.488328,0.9297 0.960218,3.01065 0.712588,3.98706 -0.1687,0.66523 -1.091278,1.40313 -0.919064,2.06356 0.256821,0.98495 1.359294,0.62162 2.126494,0.74707 0.64598,0.10555 1.31131,1.20788 1.51485,1.8033 0.68715,2.01023 -1.43757,2.91685 -2.60274,3.76398 0.64399,0.83438 1.83301,1.42769 2.79265,1.97671 1.82352,1.04332 3.65878,2.07235 5.46384,3.14724 0.71821,0.42769 1.97302,0.82349 2.49507,1.48008 0.5181,0.6516 -1.13041,2.6485 -1.4023,3.23088 m -30.476223,-23.6761 c -0.741147,1.0409 -1.802833,3.34127 -2.549793,4.24965 m -38.854037,-0.6071 c 1.389986,-7.1e-4 2.03127,-0.45045 3.399739,-0.48389 0.819407,-0.02 1.525733,0.0422 2.306956,0.15607 1.226999,0.1788 2.564095,0.81827 3.763975,1.21824 2.96798,0.98933 6.00532,2.04374 8.863588,3.31868 0.962515,0.42934 1.913324,1.23843 2.914053,1.54023 0.649669,0.19591 1.542781,0.0757 2.1803,0.26971 0.812796,0.24733 1.290143,1.50092 1.70511,2.11604 m 53.788572,-2.79264 c -0.41136,0.57824 -0.76175,2.30636 -1.48287,2.42875 -0.54048,0.0917 -1.37506,-0.66609 -1.79545,-0.97173 -0.49631,0.65046 -1.38153,2.9436 -2.19687,3.08205 -0.78106,0.13265 -2.26179,-1.6343 -2.90272,-2.0707 -0.8973,-0.61095 -2.13468,-0.45798 -3.15689,-0.63783 -0.76609,-0.13482 -1.28147,-0.32324 -1.9427,-0.61635 m -21.612577,8.98498 h 0.728515 m 30.430892,0.61104 v 0 m -32.737858,0.23889 c 1.064145,0.78812 2.685757,1.04957 4.006837,1.46012 1.418595,0.44084 3.011362,0.9138 4.371079,1.59174 0.792584,0.39517 1.264004,1.01145 2.064113,1.31922 m -10.68486,-4.00682 c -0.219656,0.31113 -0.306721,0.60217 -0.739843,0.66884 -0.531845,0.0818 -1.109903,-0.1914 -1.688533,-0.0427 -1.483958,0.3813 -2.510518,0.86784 -3.521149,1.92368 0.821595,0.67334 2.665743,1.00536 3.48264,1.77735 0.556916,0.5263 0.854206,3.32588 0.572346,4.03991 -0.372369,0.94326 -1.935107,1.69198 -2.714142,2.33234 -0.532442,0.43765 -0.816959,1.0615 -1.342727,1.50761 -1.678742,1.42444 -4.06531,2.77427 -4.737018,5.03448 -0.146,0.49115 0.425941,0.90743 0.732082,1.2142 0.807348,0.80901 3.143948,2.20989 3.885397,2.30696 M 95.28613,268.28553 c -0.199214,0.26247 -0.536941,0.55308 -0.483056,0.94417 0.04006,0.29164 0.433239,0.38444 0.483892,0.66753 0.08245,0.46129 -0.508901,1.57647 -0.898184,1.81866 -0.651834,0.40555 -1.484242,-1.16337 -2.259543,-0.94064 -0.710967,0.20427 -2.171577,1.20785 -2.461449,1.88622 -0.213308,0.49919 -0.04683,1.34581 -0.435369,1.74136 -0.512367,0.52174 -1.568023,-0.42342 -2.140846,-0.0412 -0.351388,0.23446 -0.460685,0.94826 -0.588072,1.33045 -0.407584,1.22272 -0.961619,2.39356 -1.029355,3.6421 -0.04557,0.83898 0.752136,0.91188 1.434077,1.07749 0.899848,0.21857 1.784955,0.42643 2.671207,0.63689 0.370631,0.088 0.954624,0.10459 1.14093,0.50545 0.158649,0.3414 0.0834,0.72145 0.06845,1.05894 -0.0123,0.27289 -0.02861,0.4768 -0.09993,0.72618 -0.21404,0.7486 -0.909735,0.56244 -1.716542,0.59596 -1.122459,0.0465 -2.326908,0.73781 -3.399742,1.07487 -1.070895,0.33644 -3.490835,-0.99615 -3.386878,1.36698 0.04313,0.97959 0.757529,1.26391 1.322764,2.06412 -0.728683,0.52939 -1.85144,1.11573 -2.671216,1.45704 -0.210977,-1.26758 0.0976,-2.12424 -1.335609,-2.79264 -0.246891,0.55698 -0.383348,1.18015 -0.612436,1.82062 -0.08096,0.22656 -0.242629,0.66841 -0.569802,0.54742 -0.391847,-0.14493 -0.25506,-0.74633 -0.182407,-1.03244 0.288907,-1.1379 1.014529,-1.79413 0.0285,-2.79215 -0.884976,-0.89565 -1.867875,-1.70665 -2.791992,-2.56104 -0.304076,-0.28116 -0.649028,-0.74118 -1.092767,-0.75279 -0.528385,-0.0145 -1.647201,0.60727 -2.160145,0.83439 -0.364496,0.16137 -0.801623,0.88132 -1.287265,0.52802 -0.398119,-0.28962 -0.02848,-1.01278 0.205915,-1.27585 0.718599,-0.80666 1.570098,-1.30447 2.391572,-1.8728 M 38.94787,271.92852 c 0.682191,0.46482 2.944705,1.60324 3.988928,1.50032 0.868931,-0.0857 0.403674,-2.51987 1.249602,-2.88411 0.577161,-0.24846 1.225637,-0.0732 1.80376,-0.0732 0.706694,0 1.730915,-0.32944 2.233696,0.0146 0.511139,0.34939 -0.214179,2.46366 1.039648,1.76882 0.165344,-0.0917 0.329297,-0.22132 0.490647,-0.32602 0.26277,0.33079 0.562942,0.87263 0.982318,1.00863 0.391322,0.12686 0.665127,-0.089 1.08181,0.0541 0.901818,0.30988 1.806606,0.82621 2.792628,1.10571 1.985648,0.56278 3.873001,1.00977 5.704904,2.05642 0.577787,0.33012 1.356089,1.06129 1.506879,1.72461 0.10544,0.46385 -0.171512,0.90478 0.122891,1.33515 0.829904,1.21308 2.410686,2.22663 3.471575,3.27877 0.24898,-0.65629 -0.807471,-1.16867 -0.585822,-1.82129 0.143555,-0.42248 0.977344,-1.43172 1.436219,-1.43191 0.438077,-2.2e-4 0.722595,0.51016 1.092308,0.70058 1.306151,0.67274 2.448856,1.44362 3.521144,2.43119 m 39.096865,-10.56347 c -0.89058,0.77156 -2.87299,1.2753 -4.0068,1.25552 -0.62131,-0.0106 -0.99512,0.45802 -1.45705,0.83802 -0.93971,0.77309 -2.95839,1.32365 -3.241,2.64178 -0.19857,0.92622 0.15304,3.2394 0.53673,4.11738 0.20169,0.46141 0.74361,0.66605 0.93116,1.12434 0.20241,0.49459 -0.12585,0.85608 0.19805,1.23687 0.21832,0.25672 0.74759,-0.0202 0.94399,0.2745 0.3018,0.45275 -0.12469,1.22169 0.18777,1.74625 0.4,0.67139 1.44857,1.68179 1.61712,2.42838 0.11093,0.49147 -0.16563,1.71593 -0.62902,2.09306 -0.40871,0.33264 -0.82085,-0.0999 -1.15187,-0.31676 -0.67278,-0.44067 -1.55738,-0.69943 -2.30697,-0.99927 -2.506597,-1.00265 -5.021208,-1.98411 -7.527959,-2.98684 -1.087787,-0.43514 -2.492012,-0.85737 -3.399733,-1.43275"
       id="path1"
       sodipodi:nodetypes="cssssssssssssscscssscscscssscscsssssssssssscssssssssssssssssssssssscssssszsssssssssssssssssssscsccsscssssccssssssssssssssssccscssscssssccssscssssssssssssssscssssscsssscscsscccccsssssssssscsssssssssscssssssssssssssssssssssssssssscsssssssssscsssssssccscssssccssssssssccssssssssssssssssscsccscccssssscssssscsssscccssscscssscsscccsssssccssssscsssssssszsssssccsscccsscsccssccccsccssssssscsssccccscssssccscsssccccccssccsscssscssccssssssssssssscssscccsssssssscccssssscsssssscssccccssssssssssssc" /></g></svg>
