<?xml version="1.0" encoding="UTF-8" standalone="no"?>
<!-- Created with Inkscape (http://www.inkscape.org/) -->

<svg
   width="620"
   height="550"
   viewBox="0 0 164.04167 145.52083"
   version="1.1"
   id="svg5"
   xml:space="preserve"
   sodipodi:docname="login.svg"
   inkscape:version="1.2.2 (b0a8486541, 2022-12-01)"
   xmlns:inkscape="http://www.inkscape.org/namespaces/inkscape"
   xmlns:sodipodi="http://sodipodi.sourceforge.net/DTD/sodipodi-0.dtd"
   xmlns="http://www.w3.org/2000/svg"
   xmlns:svg="http://www.w3.org/2000/svg"><sodipodi:namedview
     id="namedview7"
     pagecolor="#f9e8d9"
     bordercolor="#666666"
     borderopacity="1.0"
     inkscape:showpageshadow="2"
     inkscape:pageopacity="0"
     inkscape:pagecheckerboard="0"
     inkscape:deskcolor="#d1d1d1"
     inkscape:document-units="px"
     showgrid="false"
     inkscape:zoom="1"
     inkscape:cx="-10"
     inkscape:cy="408"
     inkscape:window-width="2534"
     inkscape:window-height="1380"
     inkscape:window-x="0"
     inkscape:window-y="0"
     inkscape:window-maximized="1"
     inkscape:current-layer="layer1"
     showguides="true" /><defs
     id="defs2"><inkscape:path-effect
       effect="simplify"
       id="path-effect41062"
       is_visible="true"
       lpeversion="1"
       steps="100"
       threshold="0.001"
       smooth_angles="200"
       helper_size="30"
       simplify_individual_paths="false"
       simplify_just_coalesce="false" /><inkscape:path-effect
       effect="simplify"
       id="path-effect41058"
       is_visible="true"
       lpeversion="1"
       steps="100"
       threshold="0.0001"
       smooth_angles="360"
       helper_size="5"
       simplify_individual_paths="false"
       simplify_just_coalesce="false" /><clipPath
       clipPathUnits="userSpaceOnUse"
       id="clipPath5633"><path
         id="path5635"
         style="fill:none;stroke:#a36951;stroke-width:0.600001;stroke-linecap:round;paint-order:markers stroke fill"
         d="m 259.84879,90.286919 h 133.8897 c 4.54105,0 8.19685,3.655796 8.19685,8.196855 V 232.37348 c 0,4.54106 -3.6558,8.19686 -8.19685,8.19686 h -133.8897 c -4.54106,0 -8.19686,-3.6558 -8.19686,-8.19686 V 98.483774 c 0,-4.541059 3.6558,-8.196855 8.19686,-8.196855 z" /></clipPath></defs><g
     inkscape:label="Layer 1"
     inkscape:groupmode="layer"
     id="layer1"
     transform="translate(-171.86771,-106.29454)"><path
       style="fill:#88ab8e;fill-opacity:1;stroke:none;stroke-width:0.264583px;stroke-linecap:butt;stroke-linejoin:miter;stroke-opacity:1"
       d="m 215.7214,233.53894 c 22.59805,12.40103 41.9902,-2.44985 42.98851,-26.65593 0.99832,-24.20608 -23.6844,-71.69388 -51.13716,-78.77508 -27.45275,-7.0812 -34.28557,21.66579 -33.17648,44.80326 1.10908,23.13749 18.72708,48.22671 41.32513,60.62775 z"
       id="path62215"
       sodipodi:nodetypes="zzzzz" /><path
       style="fill:#9ec8b9;fill-opacity:1;stroke:none;stroke-width:0.264583px;stroke-linecap:butt;stroke-linejoin:miter;stroke-opacity:1"
       d="m 201.47295,175.86157 c -4.62456,28.18364 3.33935,74.52743 43.44286,74.6895 40.10351,0.1621 69.66032,-61.17864 65.30416,-98.66815 -4.35616,-37.4895 -46.22955,-54.214877 -72.37335,-38.84125 -26.14379,15.37361 -31.74911,34.63625 -36.37367,62.8199 z"
       id="path62207"
       sodipodi:nodetypes="zzzzz" /></g></svg>
