<?xml version="1.0" encoding="UTF-8" standalone="no"?>
<!-- Created with Inkscape (http://www.inkscape.org/) -->

<svg
   width="380"
   height="80"
   viewBox="0 0 100.54166 21.166666"
   version="1.1"
   id="svg5"
   xml:space="preserve"
   inkscape:version="1.2.2 (b0a8486541, 2022-12-01)"
   sodipodi:docname="logo.svg"
   xmlns:inkscape="http://www.inkscape.org/namespaces/inkscape"
   xmlns:sodipodi="http://sodipodi.sourceforge.net/DTD/sodipodi-0.dtd"
   xmlns="http://www.w3.org/2000/svg"
   xmlns:svg="http://www.w3.org/2000/svg"><sodipodi:namedview
     id="namedview7"
     pagecolor="#f9e8d9"
     bordercolor="#666666"
     borderopacity="1.0"
     inkscape:showpageshadow="2"
     inkscape:pageopacity="0"
     inkscape:pagecheckerboard="0"
     inkscape:deskcolor="#d1d1d1"
     inkscape:document-units="px"
     showgrid="false"
     inkscape:zoom="2.8284271"
     inkscape:cx="156.09382"
     inkscape:cy="-6.7175144"
     inkscape:window-width="2534"
     inkscape:window-height="1380"
     inkscape:window-x="0"
     inkscape:window-y="0"
     inkscape:window-maximized="1"
     inkscape:current-layer="g11365" /><defs
     id="defs2"><clipPath
       clipPathUnits="userSpaceOnUse"
       id="clipPath5633"><path
         id="path5635"
         style="fill:none;stroke:#a36951;stroke-width:0.600001;stroke-linecap:round;paint-order:markers stroke fill"
         d="m 259.84879,90.286919 h 133.8897 c 4.54105,0 8.19685,3.655796 8.19685,8.196855 V 232.37348 c 0,4.54106 -3.6558,8.19686 -8.19685,8.19686 h -133.8897 c -4.54106,0 -8.19686,-3.6558 -8.19686,-8.19686 V 98.483774 c 0,-4.541059 3.6558,-8.196855 8.19686,-8.196855 z" /></clipPath></defs><g
     inkscape:label="Layer 1"
     inkscape:groupmode="layer"
     id="layer1"
     transform="translate(-17.548033,-273.16079)"><g
       style="overflow:visible"
       id="g11365"
       transform="matrix(0.26458333,0,0,0.26458333,17.548033,35.23733)"><g
         id="g27863"
         transform="translate(9.6859706,-7.8472446)"><g
           id="SvgjsG1024"
           featurekey="G09qjj-0"
           transform="matrix(0.65104169,0,0,0.65104169,-4.5193101,905.41886)"
           fill="#5893d4"
           style="fill:#88ab8e;fill-opacity:1"><title
             id="title11343">Modern Business 6 solid</title><path
             d="M 63.99091,32 A 13,13 0 1 0 50.99237,19 13.01431,13.01431 0 0 0 63.99091,32 Z"
             id="path11345"
             style="fill:#88ab8e;fill-opacity:1" /><path
             d="m 36.82355,63.24628 a 16.926,16.926 0 0 1 2.91913,-19.40643 15.86746,15.86746 0 0 1 22.81824,0 2.057,2.057 0 0 0 2.86053,0 15.86689,15.86689 0 0 1 22.81775,0 16.90373,16.90373 0 0 1 0,23.48438 l -4.18091,4.2785 a 8.00654,8.00654 0 0 0 2.04736,-0.3078 19.64265,19.64265 0 0 1 4.67743,-0.85126 l 0.31708,-0.32452 a 20.927,20.927 0 0 0 0,-29.07422 19.85774,19.85774 0 0 0 -27.10925,-1.333 19.8565,19.8565 0 0 0 -27.10828,1.333 20.93415,20.93415 0 0 0 -3.90692,23.37952 q 1.91729,-0.68409 3.84784,-1.17817 z"
             id="path11347"
             style="fill:#88ab8e;fill-opacity:1" /><path
             d="m 127.71716,83.48828 c -1.11414,-2.55273 -4.94281,-2.76172 -6.21808,-2.40918 -0.14447,0.04 -0.47162,0.084 -0.81824,0.13086 -1.94025,0.25977 -5.97882,0.80078 -14.13806,4.84863 -10.038,4.98047 -20.818,9.9209 -32.52661,10.85254 A 22.17765,22.17765 0 0 1 56.43365,90.62988 c -0.73083,-1.42676 -0.7533,-2.24707 -0.53851,-2.52051 0.80121,-1.02148 5.55212,-1.61523 15.32056,0.92676 13.24854,3.66895 20.08661,-2.92871 20.942,-3.82715 2.54663,-2.34766 5.69177,-5.7793 4.02887,-8.69727 -1.46564,-2.56934 -5.56873,-2.4043 -8.9248,-1.3877 -3.38824,1.02344 -7.05,0.28125 -10.18439,-0.583 -3.3678,-0.92871 -6.73846,-2.207 -9.99786,-3.44434 A 84.45627,84.45627 0 0 0 52.44543,66.54882 c -8.52594,-1.56543 -17.15,0.1748 -25.63336,5.16992 A 51.42527,51.42527 0 0 0 9.606,88.05469 c -8.85258,13.79785 -10.04728,24.26758 -9.4907,30.62207 a 3.58975,3.58975 0 0 0 2.74286,3.21191 3.77227,3.77227 0 0 0 4.0835,-1.62207 7.23883,7.23883 0 0 0 1.3114,-3.001 c 0.04883,-0.2207 0.10742,-0.48242 0.18945,-0.81348 a 15.226,15.226 0 0 1 6.55542,-9.21875 l 0.27094,-0.14648 c 4.40186,-2.44141 8.48682,-0.72168 17.30859,3.40234 3.74323,1.75 8.40192,3.92773 14.097,6.08691 26.00684,8.91406 44.20892,-1.95605 55.63928,-10.9043 9.47644,-7.41895 20.4,-14.80957 20.43909,-14.83789 1.7606,-1.08395 6.43778,-3.96481 4.96433,-7.34567 z"
             id="path11349"
             style="fill:#88ab8e;fill-opacity:1" /></g><g
           id="SvgjsG1025"
           featurekey="0yvIkK-0"
           transform="matrix(3.3358352,0,0,3.3358352,93.143353,898.046)"
           fill="#111111"><path
             d="m 1.6,4.88 h 1.2 v 10.08 l 4.58,-4.2 H 9.14 L 4.36,15 9.68,20 H 7.86 L 2.8,15.12 V 20 H 1.6 Z m 9.82,5.88 h 1.2 V 20 h -1.2 z m 0.6,-4.56 q 0.4,0 0.65,0.26 0.25,0.26 0.25,0.64 0,0.38 -0.25,0.64 Q 12.42,8 12.02,8 11.64,8 11.38,7.74 11.12,7.48 11.12,7.1 11.12,6.72 11.38,6.46 11.64,6.2 12.02,6.2 Z m 8.4,4.32 q 1.8,0 2.65,0.97 0.85,0.97 0.87,3.05 V 20 h -1.2 v -5.4 q 0,-1.54 -0.57,-2.27 -0.57,-0.73 -1.75,-0.73 -1.46,0 -2.32,1.01 -0.86,1.01 -0.88,2.81 V 20 h -1.2 V 13.26 Q 16,12.68 15.92,10.76 h 1.2 q 0.04,1.58 0.08,1.62 h 0.06 q 0.4,-0.84 1.27,-1.35 0.87,-0.51 1.89,-0.51 z m 7.4,4.86 q 0,1.66 1.04,2.72 1.04,1.06 2.62,1.06 1.56,0 2.69,-1.07 1.13,-1.07 1.17,-2.71 0,-1.56 -1.11,-2.66 -1.11,-1.1 -2.77,-1.12 -1.56,0 -2.59,1.06 -1.03,1.06 -1.05,2.72 z m 7.4,-10.5 h 1.2 V 20 h -1.2 v -1.62 h -0.04 q -0.5,0.88 -1.53,1.37 -1.03,0.49 -2.17,0.49 -2.06,0 -3.44,-1.35 -1.38,-1.35 -1.42,-3.51 0,-2.06 1.35,-3.44 1.35,-1.38 3.51,-1.42 1.18,0 2.18,0.49 1,0.49 1.52,1.37 h 0.04 z m 4.96,10.5 q 0,1.6 1.15,2.67 1.15,1.07 2.71,1.11 1.62,0 2.64,-1.09 1.02,-1.09 1.02,-2.69 0,-1.64 -1.03,-2.71 -1.03,-1.07 -2.65,-1.07 -1.58,0 -2.69,1.09 -1.11,1.09 -1.15,2.69 z M 39.1,4.88 h 1.2 v 7.5 h 0.04 q 0.52,-0.9 1.54,-1.38 1.02,-0.48 2.16,-0.48 2.16,0 3.51,1.4 1.35,1.4 1.35,3.46 0,2.14 -1.38,3.49 -1.38,1.35 -3.48,1.37 -1.18,0 -2.21,-0.52 Q 40.8,19.2 40.34,18.38 H 40.3 V 20 h -1.2 z m 13.26,12.56 q 0,0.76 0.61,1.24 0.61,0.48 1.51,0.48 1.62,0 2.41,-0.85 0.79,-0.85 0.79,-2.31 v -0.64 h -1.44 q -1.84,0 -2.86,0.56 -1.02,0.56 -1.02,1.52 z m 2.72,-6.92 q 1.86,0 2.76,0.86 0.9,0.86 0.92,2.4 v 2.74 q 0,2.24 0.18,3.48 H 57.82 Q 57.7,19.38 57.7,18.5 h -0.04 q -1,1.74 -3.22,1.74 -1.5,0 -2.38,-0.74 -0.88,-0.74 -0.9,-2 0,-1.54 1.33,-2.32 1.33,-0.78 3.71,-0.78 h 1.48 v -0.54 q 0,-1.14 -0.7,-1.7 -0.7,-0.56 -1.9,-0.56 -1.6,0 -2.82,1.04 l -0.7,-0.82 q 0.66,-0.64 1.63,-0.97 0.97,-0.33 1.89,-0.33 z m 7.7,4.86 q 0,1.6 1.15,2.67 1.15,1.07 2.71,1.11 1.62,0 2.64,-1.09 1.02,-1.09 1.02,-2.69 0,-1.64 -1.03,-2.71 -1.03,-1.07 -2.65,-1.07 -1.58,0 -2.69,1.09 -1.11,1.09 -1.15,2.69 z M 61.7,4.88 h 1.2 v 7.5 h 0.04 q 0.52,-0.9 1.54,-1.38 1.02,-0.48 2.16,-0.48 2.16,0 3.51,1.4 1.35,1.4 1.35,3.46 0,2.14 -1.38,3.49 -1.38,1.35 -3.48,1.37 -1.18,0 -2.21,-0.52 Q 63.4,19.2 62.94,18.38 H 62.9 V 20 h -1.2 z m 12.52,5.88 3.06,7.78 2.98,-7.78 h 1.28 L 76.8,22.82 q -0.78,1.98 -2.56,1.98 -0.56,0 -1.18,-0.18 l 0.12,-1.12 q 0.66,0.22 1.08,0.22 0.46,0 0.82,-0.32 0.36,-0.32 0.7,-1.16 l 0.86,-2.2 -3.76,-9.28 z"
             id="path11352"
             style="fill:#6b5e57;fill-opacity:1" /></g></g></g></g></svg>
