<?xml version="1.0" encoding="UTF-8" standalone="no"?>
<!-- Created with Inkscape (http://www.inkscape.org/) -->

<svg
   width="630"
   height="630"
   viewBox="0 0 166.6875 166.6875"
   version="1.1"
   id="svg5"
   xml:space="preserve"
   sodipodi:docname="welcome-background.svg"
   inkscape:version="1.2.2 (b0a8486541, 2022-12-01)"
   xmlns:inkscape="http://www.inkscape.org/namespaces/inkscape"
   xmlns:sodipodi="http://sodipodi.sourceforge.net/DTD/sodipodi-0.dtd"
   xmlns="http://www.w3.org/2000/svg"
   xmlns:svg="http://www.w3.org/2000/svg"><sodipodi:namedview
     id="namedview7"
     pagecolor="#f9e8d9"
     bordercolor="#666666"
     borderopacity="1.0"
     inkscape:showpageshadow="2"
     inkscape:pageopacity="0"
     inkscape:pagecheckerboard="0"
     inkscape:deskcolor="#d1d1d1"
     inkscape:document-units="px"
     showgrid="false"
     inkscape:zoom="1"
     inkscape:cx="392.5"
     inkscape:cy="133"
     inkscape:window-width="2534"
     inkscape:window-height="1380"
     inkscape:window-x="0"
     inkscape:window-y="0"
     inkscape:window-maximized="1"
     inkscape:current-layer="layer1" /><defs
     id="defs2"><clipPath
       clipPathUnits="userSpaceOnUse"
       id="clipPath5633"><path
         id="path5635"
         style="fill:none;stroke:#a36951;stroke-width:0.600001;stroke-linecap:round;paint-order:markers stroke fill"
         d="m 259.84879,90.286919 h 133.8897 c 4.54105,0 8.19685,3.655796 8.19685,8.196855 V 232.37348 c 0,4.54106 -3.6558,8.19686 -8.19685,8.19686 h -133.8897 c -4.54106,0 -8.19686,-3.6558 -8.19686,-8.19686 V 98.483774 c 0,-4.541059 3.6558,-8.196855 8.19686,-8.196855 z" /></clipPath></defs><g
     inkscape:label="Layer 1"
     inkscape:groupmode="layer"
     id="layer1"
     transform="translate(-61.962116,-73.037814)"><circle
       id="path3213"
       style="fill:#000000;stroke:#a36951;stroke-width:0.264583"
       cx="75.821358"
       cy="107.76724"
       r="0.08368779" /><path
       style="fill:#88ab8e;fill-opacity:1;stroke:none;stroke-width:0.264583px;stroke-linecap:butt;stroke-linejoin:miter;stroke-opacity:1"
       d="M 79.82099,218.4261 C 122.9955,258.81472 172.89895,197.08465 199.11908,154.50917 225.33922,111.93368 183.42329,54.809779 136.44252,81.80688 89.461771,108.80398 36.646482,178.03747 79.82099,218.4261 Z"
       id="path3394"
       sodipodi:nodetypes="zzzz" /><path
       style="fill:#9ec8b9;fill-opacity:1;stroke:none;stroke-width:0.264583px;stroke-linecap:butt;stroke-linejoin:miter;stroke-opacity:1"
       d="m 154.5019,224.43707 c 18.33995,18.08438 55.3991,19.52383 68.88288,-5.0863 10.92402,-27.08064 -6.41039,-54.88367 -24.0478,-74.54813 -16.70754,-21.59914 -39.26802,-46.255845 -69.20085,-43.58063 -26.55051,5.10501 -37.647109,37.89769 -28.67013,61.27375 8.15894,27.15609 32.351,44.55652 53.0359,61.94131 z"
       id="path3396"
       sodipodi:nodetypes="ssssss" /></g></svg>
