<?xml version="1.0" encoding="UTF-8" standalone="no"?>
<!-- Created with Inkscape (http://www.inkscape.org/) -->

<svg
   width="40mm"
   height="40mm"
   viewBox="0 0 40 40"
   version="1.1"
   id="svg1"
   xml:space="preserve"
   inkscape:version="1.4.4 (dcaf3e7d9e, 2026-05-05)"
   sodipodi:docname="babytroc-logo-inskcape.svg"
   inkscape:export-filename="/tmp/favicon.png"
   inkscape:export-xdpi="325.12"
   inkscape:export-ydpi="325.12"
   xmlns:inkscape="http://www.inkscape.org/namespaces/inkscape"
   xmlns:sodipodi="http://sodipodi.sourceforge.net/DTD/sodipodi-0.dtd"
   xmlns:xlink="http://www.w3.org/1999/xlink"
   xmlns="http://www.w3.org/2000/svg"
   xmlns:svg="http://www.w3.org/2000/svg"><sodipodi:namedview
     id="namedview1"
     pagecolor="#ffffff"
     bordercolor="#666666"
     borderopacity="1.0"
     inkscape:showpageshadow="2"
     inkscape:pageopacity="0.0"
     inkscape:pagecheckerboard="0"
     inkscape:deskcolor="#d1d1d1"
     inkscape:document-units="mm"
     showgrid="false"
     showguides="true"
     inkscape:zoom="3.9329899"
     inkscape:cx="55.555698"
     inkscape:cy="55.174309"
     inkscape:window-width="1906"
     inkscape:window-height="1186"
     inkscape:window-x="0"
     inkscape:window-y="0"
     inkscape:window-maximized="1"
     inkscape:current-layer="layer1"><inkscape:grid
       id="grid3"
       units="mm"
       originx="396.8504"
       originy="304.25984"
       spacingx="0.26458333"
       spacingy="0.26458334"
       empcolor="#0099e5"
       empopacity="0.30196078"
       color="#0099e5"
       opacity="0.14901961"
       empspacing="5"
       enabled="true"
       visible="false" /><sodipodi:guide
       position="103.1875,-33.691642"
       orientation="1,0"
       id="guide3"
       inkscape:locked="false" /><sodipodi:guide
       position="102.65833,-42.158302"
       orientation="0,1"
       id="guide4"
       inkscape:locked="false" /><sodipodi:guide
       position="103.98125,-37.660392"
       orientation="0,1"
       id="guide6"
       inkscape:locked="false" /><sodipodi:guide
       position="105.97418,-43.216632"
       orientation="0,1"
       id="guide7"
       inkscape:locked="false" /><sodipodi:guide
       position="109.27291,-40.570802"
       orientation="0,1"
       id="guide8"
       inkscape:locked="false" /><sodipodi:guide
       position="97.102078,-37.660382"
       orientation="1,0"
       id="guide9"
       inkscape:locked="false" /><sodipodi:guide
       position="109.27291,-37.660382"
       orientation="1,0"
       id="guide10"
       inkscape:locked="false" /><sodipodi:guide
       position="105.03958,-38.718722"
       orientation="0,1"
       id="guide11"
       inkscape:locked="false" /><sodipodi:guide
       position="106.62708,-40.306222"
       orientation="0,1"
       id="guide12"
       inkscape:locked="false" /><sodipodi:guide
       position="121.58463,-10.564202"
       orientation="0,1"
       id="guide132"
       inkscape:locked="false" /></sodipodi:namedview><defs
     id="defs1"><linearGradient
       id="linearGradient24"
       inkscape:collect="always"><stop
         style="stop-color:#50a6b6;stop-opacity:1;"
         offset="0"
         id="stop24" /><stop
         style="stop-color:#9eca69;stop-opacity:1;"
         offset="1"
         id="stop25" /></linearGradient><inkscape:path-effect
       effect="mirror_symmetry"
       start_point="93.632032,33.713615"
       end_point="93.632032,35.298133"
       center_point="93.632032,34.505874"
       id="path-effect35"
       is_visible="true"
       lpeversion="1.2"
       lpesatellites=""
       mode="free"
       discard_orig_path="false"
       fuse_paths="true"
       oposite_fuse="false"
       split_items="false"
       split_open="false"
       link_styles="false" /><inkscape:path-effect
       effect="mirror_symmetry"
       start_point="116.2873,36.374886"
       end_point="116.2873,37.73602"
       center_point="116.2873,37.055453"
       id="path-effect10"
       is_visible="true"
       lpeversion="1.2"
       lpesatellites=""
       mode="free"
       discard_orig_path="false"
       fuse_paths="true"
       oposite_fuse="false"
       split_items="false"
       split_open="false"
       link_styles="false" /><inkscape:path-effect
       effect="mirror_symmetry"
       start_point="116.299,34.608131"
       end_point="116.299,39.986929"
       center_point="116.299,37.29753"
       id="path-effect7"
       is_visible="true"
       lpeversion="1.2"
       lpesatellites=""
       mode="free"
       discard_orig_path="false"
       fuse_paths="true"
       oposite_fuse="false"
       split_items="false"
       split_open="false"
       link_styles="false" /><inkscape:path-effect
       effect="mirror_symmetry"
       start_point="105,0"
       end_point="105,297"
       center_point="105,148.5"
       id="path-effect63"
       is_visible="true"
       lpeversion="1.2"
       lpesatellites=""
       mode="vertical"
       discard_orig_path="false"
       fuse_paths="false"
       oposite_fuse="false"
       split_items="false"
       split_open="false"
       link_styles="false" /><inkscape:path-effect
       effect="mirror_symmetry"
       start_point="105,15.875"
       end_point="105,312.875"
       center_point="105,164.375"
       id="path-effect59"
       is_visible="true"
       lpeversion="1.2"
       lpesatellites=""
       mode="vertical"
       discard_orig_path="false"
       fuse_paths="false"
       oposite_fuse="false"
       split_items="false"
       split_open="false"
       link_styles="false" /><inkscape:path-effect
       effect="mirror_symmetry"
       start_point="105,0"
       end_point="105,297"
       center_point="105,148.5"
       id="path-effect54"
       is_visible="true"
       lpeversion="1.2"
       lpesatellites=""
       mode="vertical"
       discard_orig_path="false"
       fuse_paths="false"
       oposite_fuse="false"
       split_items="false"
       split_open="false"
       link_styles="false" /><inkscape:path-effect
       effect="mirror_symmetry"
       start_point="105,26.458334"
       end_point="105,323.45833"
       center_point="105,174.95833"
       id="path-effect50"
       is_visible="true"
       lpeversion="1.2"
       lpesatellites=""
       mode="vertical"
       discard_orig_path="false"
       fuse_paths="false"
       oposite_fuse="false"
       split_items="false"
       split_open="false"
       link_styles="false" /><inkscape:path-effect
       effect="mirror_symmetry"
       start_point="105,0"
       end_point="105,297"
       center_point="105,148.5"
       id="path-effect45"
       is_visible="true"
       lpeversion="1.2"
       lpesatellites=""
       mode="vertical"
       discard_orig_path="false"
       fuse_paths="false"
       oposite_fuse="false"
       split_items="false"
       split_open="false"
       link_styles="false" /><inkscape:path-effect
       effect="mirror_symmetry"
       start_point="105,0"
       end_point="134.57676,298.46907"
       center_point="119.78838,149.23453"
       id="path-effect44"
       is_visible="true"
       lpeversion="1.2"
       lpesatellites=""
       mode="vertical"
       discard_orig_path="false"
       fuse_paths="false"
       oposite_fuse="false"
       split_items="false"
       split_open="false"
       link_styles="false" /><inkscape:path-effect
       effect="mirror_symmetry"
       start_point="105,0"
       end_point="134.57676,298.46907"
       center_point="119.78838,149.23453"
       id="path-effect43"
       is_visible="true"
       lpeversion="1.2"
       lpesatellites=""
       mode="vertical"
       discard_orig_path="false"
       fuse_paths="false"
       oposite_fuse="false"
       split_items="false"
       split_open="false"
       link_styles="false" /><inkscape:path-effect
       effect="mirror_symmetry"
       center_point="119.78838,149.23453"
       id="path-effect42"
       is_visible="true"
       lpeversion="1.2"
       lpesatellites=""
       mode="vertical"
       discard_orig_path="false"
       fuse_paths="false"
       oposite_fuse="false"
       split_items="false"
       split_open="false"
       link_styles="false"
       start_point="105,0"
       end_point="134.57676,298.46907" /><inkscape:path-effect
       effect="mirror_symmetry"
       start_point="105,0"
       end_point="134.57676,298.46907"
       center_point="119.78838,149.23453"
       id="path-effect41"
       is_visible="true"
       lpeversion="1.2"
       lpesatellites=""
       mode="vertical"
       discard_orig_path="false"
       fuse_paths="false"
       oposite_fuse="false"
       split_items="false"
       split_open="false"
       link_styles="false" /><inkscape:path-effect
       effect="mirror_symmetry"
       start_point="105,0"
       end_point="105,297"
       center_point="105,148.5"
       id="path-effect39"
       is_visible="true"
       lpeversion="1.2"
       lpesatellites=""
       mode="vertical"
       discard_orig_path="false"
       fuse_paths="false"
       oposite_fuse="false"
       split_items="false"
       split_open="false"
       link_styles="false" /><inkscape:path-effect
       effect="mirror_symmetry"
       start_point="105,0"
       end_point="105,297"
       center_point="105,148.5"
       id="path-effect37"
       is_visible="true"
       lpeversion="1.2"
       lpesatellites=""
       mode="vertical"
       discard_orig_path="false"
       fuse_paths="false"
       oposite_fuse="false"
       split_items="false"
       split_open="false"
       link_styles="false" /><inkscape:path-effect
       effect="mirror_symmetry"
       start_point="105,0"
       end_point="105,297"
       center_point="105,148.5"
       id="path-effect33"
       is_visible="true"
       lpeversion="1.2"
       lpesatellites=""
       mode="vertical"
       discard_orig_path="false"
       fuse_paths="false"
       oposite_fuse="false"
       split_items="false"
       split_open="false"
       link_styles="false" /><inkscape:path-effect
       effect="mirror_symmetry"
       start_point="113.23355,94.213182"
       end_point="113.23355,97.358249"
       center_point="113.23355,95.785715"
       id="path-effect31"
       is_visible="true"
       lpeversion="1.2"
       lpesatellites=""
       mode="vertical"
       discard_orig_path="false"
       fuse_paths="false"
       oposite_fuse="false"
       split_items="false"
       split_open="false"
       link_styles="false" /><inkscape:path-effect
       effect="mirror_symmetry"
       start_point="105,0"
       end_point="105,297"
       center_point="105,148.5"
       id="path-effect30"
       is_visible="true"
       lpeversion="1.2"
       lpesatellites=""
       mode="vertical"
       discard_orig_path="false"
       fuse_paths="false"
       oposite_fuse="false"
       split_items="false"
       split_open="false"
       link_styles="false" /><inkscape:path-effect
       effect="mirror_symmetry"
       start_point="105,0"
       end_point="105,297"
       center_point="105,148.5"
       id="path-effect29"
       is_visible="true"
       lpeversion="1.2"
       lpesatellites=""
       mode="vertical"
       discard_orig_path="false"
       fuse_paths="false"
       oposite_fuse="false"
       split_items="false"
       split_open="false"
       link_styles="false" /><inkscape:path-effect
       effect="mirror_symmetry"
       start_point="105,26.458334"
       end_point="105,323.45833"
       center_point="105,174.95833"
       id="path-effect28"
       is_visible="true"
       lpeversion="1.2"
       lpesatellites=""
       mode="vertical"
       discard_orig_path="false"
       fuse_paths="false"
       oposite_fuse="false"
       split_items="false"
       split_open="false"
       link_styles="false" /><inkscape:path-effect
       effect="mirror_symmetry"
       start_point="105,26.458334"
       end_point="105,323.45833"
       center_point="105,174.95833"
       id="path-effect26"
       is_visible="true"
       lpeversion="1.2"
       lpesatellites=""
       mode="vertical"
       discard_orig_path="false"
       fuse_paths="false"
       oposite_fuse="false"
       split_items="false"
       split_open="false"
       link_styles="false" /><inkscape:path-effect
       effect="mirror_symmetry"
       start_point="105,0"
       end_point="105,297"
       center_point="105,148.5"
       id="path-effect9"
       is_visible="true"
       lpeversion="1.2"
       lpesatellites=""
       mode="vertical"
       discard_orig_path="false"
       fuse_paths="false"
       oposite_fuse="false"
       split_items="false"
       split_open="false"
       link_styles="false" /><inkscape:path-effect
       effect="mirror_symmetry"
       start_point="105,21.166667"
       end_point="105,318.16667"
       center_point="105,169.66667"
       id="path-effect8"
       is_visible="true"
       lpeversion="1.2"
       lpesatellites=""
       mode="vertical"
       discard_orig_path="false"
       fuse_paths="false"
       oposite_fuse="false"
       split_items="false"
       split_open="false"
       link_styles="false" /><inkscape:path-effect
       effect="mirror_symmetry"
       start_point="105,0"
       end_point="105,297"
       center_point="105,148.5"
       id="path-effect4"
       is_visible="true"
       lpeversion="1.2"
       lpesatellites=""
       mode="vertical"
       discard_orig_path="false"
       fuse_paths="false"
       oposite_fuse="false"
       split_items="false"
       split_open="false"
       link_styles="false" /><inkscape:path-effect
       effect="mirror_symmetry"
       start_point="113.61077,92.337887"
       end_point="113.61077,97.72861"
       center_point="113.61077,95.033248"
       id="path-effect3"
       is_visible="true"
       lpeversion="1.2"
       lpesatellites=""
       mode="vertical"
       discard_orig_path="false"
       fuse_paths="false"
       oposite_fuse="false"
       split_items="false"
       split_open="false"
       link_styles="false" /><inkscape:path-effect
       effect="mirror_symmetry"
       start_point="113.61077,92.337887"
       end_point="113.61077,97.72861"
       center_point="113.61077,95.033248"
       id="path-effect2"
       is_visible="true"
       lpeversion="1.2"
       lpesatellites=""
       mode="vertical"
       discard_orig_path="false"
       fuse_paths="false"
       oposite_fuse="false"
       split_items="false"
       split_open="false"
       link_styles="false" /><inkscape:path-effect
       effect="mirror_symmetry"
       start_point="105,-5.2916667"
       end_point="105,291.70833"
       center_point="105,143.20833"
       id="path-effect89"
       is_visible="true"
       lpeversion="1.2"
       lpesatellites=""
       mode="vertical"
       discard_orig_path="false"
       fuse_paths="false"
       oposite_fuse="false"
       split_items="false"
       split_open="false"
       link_styles="false" /><inkscape:path-effect
       effect="mirror_symmetry"
       start_point="105.09354,-5.3501319"
       end_point="105.09354,291.64987"
       center_point="105.09354,143.14987"
       id="path-effect87"
       is_visible="true"
       lpeversion="1.2"
       lpesatellites=""
       mode="vertical"
       discard_orig_path="false"
       fuse_paths="false"
       oposite_fuse="false"
       split_items="false"
       split_open="false"
       link_styles="false" /><inkscape:path-effect
       effect="mirror_symmetry"
       start_point="105,-10.583333"
       end_point="105,286.41667"
       center_point="105,137.91667"
       id="path-effect85"
       is_visible="true"
       lpeversion="1.2"
       lpesatellites=""
       mode="vertical"
       discard_orig_path="false"
       fuse_paths="false"
       oposite_fuse="false"
       split_items="false"
       split_open="false"
       link_styles="false" /><inkscape:path-effect
       effect="mirror_symmetry"
       start_point="107.34818,-0.46192911"
       end_point="107.34818,296.53807"
       center_point="107.34818,148.03807"
       id="path-effect62"
       is_visible="true"
       lpeversion="1.2"
       lpesatellites=""
       mode="vertical"
       discard_orig_path="false"
       fuse_paths="false"
       oposite_fuse="false"
       split_items="false"
       split_open="false"
       link_styles="false" /><inkscape:path-effect
       effect="mirror_symmetry"
       start_point="105,1.7539563"
       end_point="105,298.75396"
       center_point="105,150.25396"
       id="path-effect60"
       is_visible="true"
       lpeversion="1.2"
       lpesatellites=""
       mode="vertical"
       discard_orig_path="false"
       fuse_paths="false"
       oposite_fuse="false"
       split_items="false"
       split_open="false"
       link_styles="false" /><inkscape:path-effect
       effect="mirror_symmetry"
       start_point="105,0"
       end_point="105,297"
       center_point="105,148.5"
       id="path-effect58"
       is_visible="true"
       lpeversion="1.2"
       lpesatellites=""
       mode="vertical"
       discard_orig_path="false"
       fuse_paths="false"
       oposite_fuse="false"
       split_items="false"
       split_open="false"
       link_styles="false" /><inkscape:path-effect
       effect="mirror_symmetry"
       start_point="105,0"
       end_point="105,297"
       center_point="105,148.5"
       id="path-effect53"
       is_visible="true"
       lpeversion="1.2"
       lpesatellites=""
       mode="vertical"
       discard_orig_path="false"
       fuse_paths="false"
       oposite_fuse="false"
       split_items="false"
       split_open="false"
       link_styles="false" /><inkscape:path-effect
       effect="mirror_symmetry"
       start_point="105,0"
       end_point="105,297"
       center_point="105,148.5"
       id="path-effect52"
       is_visible="true"
       lpeversion="1.2"
       lpesatellites=""
       mode="vertical"
       discard_orig_path="false"
       fuse_paths="false"
       oposite_fuse="false"
       split_items="false"
       split_open="false"
       link_styles="false" /><inkscape:path-effect
       effect="mirror_symmetry"
       start_point="105,0"
       end_point="105,297"
       center_point="105,148.5"
       id="path-effect51"
       is_visible="true"
       lpeversion="1.2"
       lpesatellites=""
       mode="vertical"
       discard_orig_path="false"
       fuse_paths="false"
       oposite_fuse="false"
       split_items="false"
       split_open="false"
       link_styles="false" /><inkscape:path-effect
       effect="mirror_symmetry"
       start_point="105,0"
       end_point="105,297"
       center_point="105,148.5"
       id="path-effect49"
       is_visible="true"
       lpeversion="1.2"
       lpesatellites=""
       mode="vertical"
       discard_orig_path="false"
       fuse_paths="false"
       oposite_fuse="false"
       split_items="false"
       split_open="false"
       link_styles="false" /><inkscape:path-effect
       effect="mirror_symmetry"
       start_point="105,-21.166667"
       end_point="105,275.83333"
       center_point="105,127.33333"
       id="path-effect40"
       is_visible="true"
       lpeversion="1.2"
       lpesatellites=""
       mode="vertical"
       discard_orig_path="false"
       fuse_paths="false"
       oposite_fuse="false"
       split_items="false"
       split_open="false"
       link_styles="false" /><inkscape:path-effect
       effect="mirror_symmetry"
       start_point="105,-21.166667"
       end_point="105,275.83333"
       center_point="105,127.33333"
       id="path-effect38"
       is_visible="true"
       lpeversion="1.2"
       lpesatellites=""
       mode="vertical"
       discard_orig_path="false"
       fuse_paths="false"
       oposite_fuse="false"
       split_items="false"
       split_open="false"
       link_styles="false" /><inkscape:path-effect
       effect="mirror_symmetry"
       start_point="105.09354,-21.225133"
       end_point="105.09354,275.77487"
       center_point="105.09354,127.27487"
       id="path-effect36"
       is_visible="true"
       lpeversion="1.2"
       lpesatellites=""
       mode="vertical"
       discard_orig_path="false"
       fuse_paths="false"
       oposite_fuse="false"
       split_items="false"
       split_open="false"
       link_styles="false" /><inkscape:path-effect
       effect="mirror_symmetry"
       start_point="105.04677,-21.166667"
       end_point="105.04677,275.83333"
       center_point="105.04677,127.33333"
       id="path-effect34"
       is_visible="true"
       lpeversion="1.2"
       lpesatellites=""
       mode="vertical"
       discard_orig_path="false"
       fuse_paths="false"
       oposite_fuse="false"
       split_items="false"
       split_open="false"
       link_styles="false" /><inkscape:path-effect
       effect="mirror_symmetry"
       start_point="103.14792,-21.19974"
       end_point="103.14792,275.80026"
       center_point="103.14792,127.30026"
       id="path-effect32"
       is_visible="true"
       lpeversion="1.2"
       lpesatellites=""
       mode="vertical"
       discard_orig_path="false"
       fuse_paths="false"
       oposite_fuse="false"
       split_items="false"
       split_open="false"
       link_styles="false" /><inkscape:path-effect
       effect="mirror_symmetry"
       start_point="105,0"
       end_point="105,297"
       center_point="105,148.5"
       id="path-effect25"
       is_visible="true"
       lpeversion="1.2"
       lpesatellites=""
       mode="vertical"
       discard_orig_path="false"
       fuse_paths="false"
       oposite_fuse="false"
       split_items="false"
       split_open="false"
       link_styles="false" /><inkscape:path-effect
       effect="mirror_symmetry"
       start_point="105,0"
       end_point="105,297"
       center_point="105,148.5"
       id="path-effect23"
       is_visible="true"
       lpeversion="1.2"
       lpesatellites=""
       mode="vertical"
       discard_orig_path="false"
       fuse_paths="false"
       oposite_fuse="false"
       split_items="false"
       split_open="false"
       link_styles="false" /><inkscape:path-effect
       effect="mirror_symmetry"
       start_point="105.09354,-0.05846521"
       end_point="105.09354,296.94153"
       center_point="105.09354,148.44153"
       id="path-effect22"
       is_visible="true"
       lpeversion="1.2"
       lpesatellites=""
       mode="vertical"
       discard_orig_path="false"
       fuse_paths="false"
       oposite_fuse="false"
       split_items="false"
       split_open="false"
       link_styles="false" /><inkscape:path-effect
       effect="mirror_symmetry"
       start_point="105.04677,0"
       end_point="105.04677,297"
       center_point="105.04677,148.5"
       id="path-effect21"
       is_visible="true"
       lpeversion="1.2"
       lpesatellites=""
       mode="vertical"
       discard_orig_path="false"
       fuse_paths="false"
       oposite_fuse="false"
       split_items="false"
       split_open="false"
       link_styles="false" /><inkscape:path-effect
       effect="mirror_symmetry"
       start_point="105,0"
       end_point="105,297"
       center_point="105,148.5"
       id="path-effect20"
       is_visible="true"
       lpeversion="1.2"
       lpesatellites=""
       mode="vertical"
       discard_orig_path="false"
       fuse_paths="false"
       oposite_fuse="false"
       split_items="false"
       split_open="false"
       link_styles="false" /><inkscape:path-effect
       effect="mirror_symmetry"
       start_point="105,0"
       end_point="105,297"
       center_point="105,148.5"
       id="path-effect19"
       is_visible="true"
       lpeversion="1.2"
       lpesatellites=""
       mode="vertical"
       discard_orig_path="false"
       fuse_paths="false"
       oposite_fuse="false"
       split_items="false"
       split_open="false"
       link_styles="false" /><inkscape:path-effect
       effect="mirror_symmetry"
       start_point="103.14792,-0.03307263"
       end_point="103.14792,296.96693"
       center_point="103.14792,148.46693"
       id="path-effect18"
       is_visible="true"
       lpeversion="1.2"
       lpesatellites=""
       mode="vertical"
       discard_orig_path="false"
       fuse_paths="false"
       oposite_fuse="false"
       split_items="false"
       split_open="false"
       link_styles="false" /><linearGradient
       inkscape:collect="always"
       xlink:href="#linearGradient24"
       id="linearGradient48"
       x1="8.7168827"
       y1="32.842518"
       x2="30.289364"
       y2="6.7234058"
       gradientUnits="userSpaceOnUse"
       gradientTransform="translate(-34.454094,271.30802)" /><linearGradient
       inkscape:collect="always"
       xlink:href="#linearGradient24"
       id="linearGradient49"
       x1="8.7168827"
       y1="32.842518"
       x2="30.289364"
       y2="6.7234058"
       gradientUnits="userSpaceOnUse"
       gradientTransform="translate(-34.454094,271.30802)" /><linearGradient
       inkscape:collect="always"
       xlink:href="#linearGradient24"
       id="linearGradient50"
       x1="8.7168827"
       y1="32.842518"
       x2="30.289364"
       y2="6.7234058"
       gradientUnits="userSpaceOnUse"
       gradientTransform="translate(-34.454094,271.30802)" /><linearGradient
       inkscape:collect="always"
       xlink:href="#linearGradient24"
       id="linearGradient51"
       x1="8.7168827"
       y1="32.842518"
       x2="30.289364"
       y2="6.7234058"
       gradientUnits="userSpaceOnUse"
       gradientTransform="translate(-34.454094,271.30802)" /></defs><g
     inkscape:label="Layer 1"
     inkscape:groupmode="layer"
     id="layer1"
     transform="translate(0,-257)"><g
       id="g11"
       transform="translate(33.305624,-14.849153)"><path
         id="path121"
         style="baseline-shift:baseline;display:inline;overflow:visible;vector-effect:none;fill:url(#linearGradient51);stroke-linecap:round;stroke-linejoin:round;paint-order:markers fill stroke;enable-background:accumulate;stop-color:#000000"
         d="m -0.36135687,295.07598 a 6.9453125,6.9453125 0 0 0 1.46657997,0.15658 6.9453125,6.9453125 0 0 0 2.14148,-0.33848 c 0.38801,-2.09106 0.38432,-4.28602 -0.0724,-6.48384 l -3.42615997,0.71313 c 0.42267,2.03417 0.36136,4.0594 -0.10955,5.95261 z" /><path
         id="path122"
         style="baseline-shift:baseline;display:inline;overflow:visible;vector-effect:none;fill:#306f7e;stroke-linecap:round;stroke-linejoin:round;paint-order:markers fill stroke;enable-background:accumulate;stop-color:#000000"
         d="m -0.75099687,294.97986 a 6.9453125,6.9453125 0 0 0 0.76223,0.16588 c 0.42765,-1.81676 0.48369,-3.75103 0.14004,-5.69628 l 2.67787997,-0.55863 c 0.37975,2.08255 0.35569,4.15625 -0.0279,6.1314 a 6.9453125,6.9453125 0 0 0 0.87902,-0.28473 c 0.35538,-2.07211 0.33602,-4.23965 -0.11473,-6.40891 a 0.40004001,0.40004001 0 0 0 -0.47284,-0.31057 l -3.42562997,0.71468 a 0.40004001,0.40004001 0 0 0 -0.31057,0.47284 c 0.41035,1.9749 0.35011,3.93857 -0.10749,5.77432 z" /><path
         style="baseline-shift:baseline;display:inline;overflow:visible;vector-effect:none;fill:url(#linearGradient50);fill-rule:evenodd;stroke:none;stroke-width:0.8;stroke-linecap:round;stroke-linejoin:round;stroke-dasharray:none;stroke-opacity:1;enable-background:accumulate;stop-color:#000000"
         d="m -13.882497,274.98574 0.11317,3.4985 c 6.2153501,-0.201 11.6644201,3.87413 13.30255013,9.75548 l -1.41749003,0.25218 3.85713,3.1228 2.54507,-4.26175 -1.52704,0.27182 c -1.95319,-7.57411 -8.94393,-12.89545 -16.8733901,-12.63903 z"
         id="path116" /><path
         style="baseline-shift:baseline;display:inline;overflow:visible;vector-effect:none;fill:#306f7e;fill-opacity:1;fill-rule:evenodd;stroke:none;stroke-width:0.8;stroke-linecap:round;stroke-linejoin:round;stroke-dasharray:none;stroke-opacity:1;enable-background:accumulate;stop-color:#000000"
         d="m -13.896087,274.58561 a 0.40004001,0.40004001 0 0 0 -0.38671,0.4121 l 0.11328,3.5 a 0.40004001,0.40004001 0 0 0 0.41406,0.38672 c 5.8744801,-0.18997 10.9761201,3.586 12.7109401,9.05078 l -0.91016,0.16211 a 0.40004001,0.40004001 0 0 0 -0.18164,0.70508 l 3.85742,3.12305 a 0.40004001,0.40004001 0 0 0 0.5957,-0.10547 l 2.54493,-4.26172 a 0.40004001,0.40004001 0 0 0 -0.41407,-0.59961 l -1.19531,0.21289 c -2.12757,-7.55826 -9.16119,-12.84423 -17.1484401,-12.58593 z m 0.42969,0.85742 c 7.5695101,-0.0539 14.19786013,5.02023 16.0703101,12.28125 a 0.40004001,0.40004001 0 0 0 0.45704,0.29492 l 0.66406,-0.11719 -1.85938,3.11133 -2.81639997,-2.28125 0.55468,-0.0977 a 0.40004001,0.40004001 0 0 0 0.31446,-0.50195 C -1.7314369,282.20916 -7.1564769,278.12391 -13.378507,278.1383 Z"
         id="path117" /><path
         style="baseline-shift:baseline;display:inline;overflow:visible;vector-effect:none;fill:url(#linearGradient49);fill-rule:evenodd;stroke:none;stroke-width:0.8;stroke-linecap:round;stroke-linejoin:round;stroke-dasharray:none;stroke-opacity:1;enable-background:accumulate;stop-color:#000000"
         d="m -14.965627,273.50315 0.0284,1.54926 c -8.38652,0.79554 -15.014234,7.75853 -15.256954,16.31011 l 3.497977,0.0992 c 0.19067,-6.71771 5.278387,-12.15194 11.823057,-12.8974 l 0.0264,1.44074 3.6897,-3.32073 z"
         id="path114" /><path
         style="baseline-shift:baseline;display:inline;overflow:visible;vector-effect:none;fill:#306f7e;fill-opacity:1;fill-rule:evenodd;stroke:none;stroke-width:0.8;stroke-linecap:round;stroke-linejoin:round;stroke-dasharray:none;stroke-opacity:1;enable-background:accumulate;stop-color:#000000"
         d="m -14.709877,273.19628 a 0.40004001,0.40004001 0 0 0 -0.65625,0.31446 l 0.0234,1.21289 c -8.405967,0.98429 -15.007174,8.00368 -15.251924,16.62695 a 0.40004001,0.40004001 0 0 0 0.38867,0.41211 l 3.498047,0.0996 a 0.40004001,0.40004001 0 0 0 0.41211,-0.38867 c 0.18059,-6.36242 4.907737,-11.46013 11.033207,-12.38086 l 0.0156,0.91992 a 0.40004001,0.40004001 0 0 0 0.66796,0.28906 l 3.68946,-3.32031 a 0.40004001,0.40004001 0 0 0 -0.0117,-0.60352 z m 0.16015,1.17383 2.7832,2.32617 -2.69726,2.42578 -0.01,-0.56445 a 0.40004001,0.40004001 0 0 0 -0.44531,-0.39062 c -6.60133,0.75191 -11.701437,6.16614 -12.093757,12.88476 l -2.732417,-0.0781 c 0.43334,-8.16289 6.792464,-14.75948 14.845934,-15.52343 a 0.40004001,0.40004001 0 0 0 0.36133,-0.4043 z"
         id="path115" /><path
         id="path125"
         style="baseline-shift:baseline;display:inline;overflow:visible;vector-effect:none;fill:url(#linearGradient48);stroke-linecap:round;stroke-linejoin:round;paint-order:markers fill stroke;enable-background:accumulate;stop-color:#000000"
         d="m -28.188594,288.11206 -3.556377,3.45922 1.54461,0.13179 c -0.0248,2.94717 0.72413,5.78106 2.090307,8.26253 l -0.004,0.002 c 0.97252,1.76825 2.2453,3.30648 3.72174,4.58938 0.0565,0.0492 0.10507,0.10603 0.16226,0.15451 0.52688,0.4457 1.078537,0.85966 1.654167,1.23662 0.63804,0.41829 1.31395,0.78757 2.01435,1.11983 0.24164,0.11474 0.49548,0.20009 0.74259,0.30334 0.37537,0.15672 0.74012,0.33075 1.13068,0.46147 l 0.01,-0.0295 c 1.73421,0.58137 3.56401,0.9148 5.44928,0.90278 1.53596,-0.01 3.03259,-0.25295 4.4710501,-0.6599 l 0.007,0.0243 c 0.13425,-0.0379 0.26789,-0.0773 0.40049,-0.1183 0.52993,-0.16417 1.04951,-0.35492 1.55856,-0.56947 0.27906,-0.11741 0.54278,-0.25741 0.81287,-0.38861 0.22427,-0.10896 0.45375,-0.20738 0.67283,-0.32608 0.26162,-0.14181 0.50803,-0.3033 0.76016,-0.45785 0.21847,-0.13366 0.44251,-0.25805 0.65474,-0.40153 0.19363,-0.13125 0.37341,-0.27832 0.56069,-0.41702 0.25976,-0.19173 0.52282,-0.37835 0.77153,-0.58498 0.10438,-0.0871 0.19918,-0.18344 0.30127,-0.27285 0.31682,-0.27637 0.63077,-0.5559 0.92707,-0.85628 0.008,-0.008 0.0141,-0.0165 0.0217,-0.0243 1.11440003,-1.13413 2.08173003,-2.43028 2.85151,-3.87315 l -0.008,-0.004 c 1.15229,-2.15721 1.85345,-4.33384 1.98315,-6.83805 -1.06596,0.4741 -2.39482,0.52865 -3.55100997,0.42109 -0.17433,1.7527 -0.69342,3.25706 -1.50430003,4.77675 l -0.008,-0.004 c -1.43105,2.68237 -3.69792,4.7443 -6.38256,5.93246 -0.56818,0.25014 -1.16056,0.46365 -1.77457,0.63717 l 5.2e-4,0.003 c -1.1390401,0.32166 -2.3310601,0.49453 -3.5486201,0.50229 -1.49524,0.01 -2.95478,-0.2306 -4.32842,-0.69039 l 5.2e-4,-10e-4 c -0.53992,-0.18071 -1.06196,-0.39299 -1.56425,-0.63458 -0.62444,-0.30035 -1.21671,-0.64848 -1.77715,-1.03405 -0.44159,-0.3044 -0.85041,-0.65567 -1.25367,-1.01234 -0.10905,-0.0964 -0.23335,-0.17673 -0.339,-0.27647 -0.99435,-0.93952 -1.852797,-2.03911 -2.532667,-3.27525 l -0.005,0.003 c -1.03962,-1.88989 -1.62622,-4.03907 -1.65106,-6.28281 l 1.43506,0.12247 z"
         sodipodi:nodetypes="cccccccccccccccccsccccccccccccccccccccscscccccc" /><path
         id="path124"
         style="baseline-shift:baseline;display:inline;overflow:visible;vector-effect:none;fill:#306f7e;stroke-linecap:round;stroke-linejoin:round;paint-order:markers fill stroke;enable-background:accumulate;stop-color:#000000"
         d="m -0.42594687,293.07558 c -0.16258,1.72196 -0.66835003,3.37193 -1.46348003,4.8643 a 0.40004001,0.40004001 0 0 0 -0.01,0.004 c -1.38854,2.60271 -3.58712,4.60108 -6.19135,5.75365 -0.55067,0.24233 -1.12526,0.45079 -1.72082,0.61909 a 0.40004001,0.40004001 0 0 0 0,0.002 h -5.2e-4 -5.2e-4 -5.2e-4 -5.1e-4 c -1.1043201,0.31168 -2.2588801,0.48083 -3.4395901,0.48835 -1.45076,0.009 -2.86671,-0.2237 -4.19922,-0.66973 a 0.40004001,0.40004001 0 0 0 0,-0.002 c -0.52407,-0.17545 -1.03001,-0.38112 -1.51723,-0.61546 -0.60467,-0.29084 -1.1803,-0.62885 -1.72496,-1.00356 -0.41818,-0.28826 -0.814,-0.62875 -1.21439,-0.98289 -0.13944,-0.12326 -0.26048,-0.20133 -0.33021,-0.26716 -0.96464,-0.91145 -1.795537,-1.97671 -2.455147,-3.17604 a 0.40004001,0.40004001 0 0 0 -0.008,-0.002 c -0.93655,-1.70387 -1.44603,-3.63468 -1.53893,-5.64462 l 0.94103,0.0801 a 0.40004001,0.40004001 0 0 0 0.3576,-0.63458 l -2.92385,-4.01165 a 0.40004001,0.40004001 0 0 0 -0.60152,-0.0527 l -3.556887,3.46076 a 0.40004001,0.40004001 0 0 0 0.2465,0.68369 l 1.22266,0.10542 c 0.0399,2.87746 0.75573,5.64897 2.093417,8.08012 a 0.40004001,0.40004001 0 0 0 -0.002,0.006 c 0.9961,1.81112 2.29898,3.38549 3.80855,4.69739 0.0272,0.0237 0.0769,0.0822 0.1664,0.15813 a 0.40004001,0.40004001 0 0 0 0,0.002 c 0.53874,0.45573 1.103507,0.87923 1.693437,1.26555 0.65609,0.43013 1.34835,0.80796 2.06241,1.1467 0.27026,0.12833 0.53009,0.21467 0.75964,0.31058 0.36323,0.15166 0.73726,0.32992 1.15807,0.47076 a 0.40004001,0.40004001 0 0 0 0.047,-0.0238 c 1.7605,0.58641 3.61952,0.93054 5.54075,0.91829 1.56703,-0.0102 3.09088,-0.25931 4.5511401,-0.67025 a 0.40004001,0.40004001 0 0 0 0.0351,0.0196 c 0.13712,-0.0387 0.27231,-0.0789 0.40824,-0.12092 a 0.40004001,0.40004001 0 0 0 0.002,0 c 0.54299,-0.16822 1.07308,-0.36295 1.59371,-0.58238 0.3008,-0.12655 0.57252,-0.2714 0.83405,-0.39843 0.21296,-0.10347 0.44678,-0.20351 0.6873,-0.33383 0.28096,-0.15229 0.534,-0.31836 0.77928,-0.46871 0.20886,-0.12778 0.43814,-0.25373 0.66973,-0.41031 a 0.40004001,0.40004001 0 0 0 0,-0.002 c 0.21332,-0.14459 0.39765,-0.29472 0.57464,-0.42581 0.25572,-0.18875 0.52429,-0.38038 0.78858,-0.59996 0.12444,-0.10377 0.2218,-0.20267 0.30903,-0.27906 v 0.002 c 0.31713,-0.27665 0.63623,-0.56267 0.94309,-0.87333 0.0238,-0.0232 0.0349,-0.0352 0.0362,-0.0372 h -5.2e-4 c -9.6e-4,7.7e-4 -0.004,0.004 -0.006,0.006 1.13929003,-1.1598 2.13015,-2.486 2.91817,-3.96306 a 0.40004001,0.40004001 0 0 0 -0.004,-0.0139 c 1.21762,-2.28282 1.92902,-4.84351 2.02469,-7.50032 a 5.0270834,5.0270834 0 0 1 -0.84646,0.4594 c -0.14674,2.36215 -0.7996,4.63347 -1.8893,6.6735 a 0.40004001,0.40004001 0 0 0 0.004,0.0103 c -0.75054997,1.40532 -1.69205997,2.66914 -2.77915,3.77548 -0.0186,0.019 -0.029,0.0292 -0.0315,0.032 -0.28163,0.28473 -0.5831,0.55568 -0.89452,0.82734 a 0.40004001,0.40004001 0 0 0 -0.002,0 c -0.11696,0.10243 -0.20868,0.19735 -0.29301,0.26768 v -0.002 c -0.23312,0.19368 -0.48809,0.37735 -0.75189,0.57206 a 0.40004001,0.40004001 0 0 0 -0.002,0 c -0.19757,0.14633 -0.3728,0.28827 -0.54674,0.40617 -0.19287,0.1304 -0.41063,0.2532 -0.63872,0.39274 -0.25898,0.15875 -0.49979,0.3162 -0.74207,0.44752 -0.19764,0.10709 -0.42071,0.20387 -0.65629,0.31833 -0.27865,0.13535 -0.53591,0.27053 -0.79323,0.37879 a 0.40004001,0.40004001 0 0 0 -0.002,0 c -0.49747,0.20967 -1.005,0.39642 -1.52187,0.55655 -0.12029,0.0371 -0.24269,0.0728 -0.36483,0.10749 a 0.40004001,0.40004001 0 0 0 -0.0315,-0.0176 c -1.4086601,0.39852 -2.8696401,0.63671 -4.3651101,0.64646 -1.83646,0.0117 -3.62309,-0.31354 -5.32061,-0.88262 a 0.40004001,0.40004001 0 0 0 -0.0367,0.0176 c -0.35112,-0.11989 -0.69858,-0.28201 -1.07642,-0.43977 -0.26467,-0.11059 -0.51149,-0.19341 -0.7245,-0.29456 -0.68674,-0.32578 -1.34682,-0.68753 -1.96681,-1.09399 -0.56133,-0.3676 -1.1004,-0.77151 -1.615397,-1.20716 -0.0249,-0.0211 -0.0723,-0.0756 -0.15813,-0.15038 a 0.40004001,0.40004001 0 0 0 0,-0.002 c -1.4414,-1.25255 -2.68242,-2.75173 -3.63079,-4.47466 a 0.40004001,0.40004001 0 0 0 0.002,-0.008 c -1.333967,-2.42291 -2.065447,-5.18736 -2.041217,-8.06461 a 0.40004001,0.40004001 0 0 0 -0.36691,-0.40204 l -0.67179,-0.0589 2.597257,-2.52544 2.13682,2.93005 -0.56224,-0.047 a 0.40004001,0.40004001 0 0 0 -0.43356,0.40256 c 0.0256,2.31062 0.6284,4.52396 1.69912,6.47039 a 0.40004001,0.40004001 0 0 0 0.01,0.002 c 0.69968,1.27097 1.58071,2.40295 2.603457,3.3693 0.14156,0.13364 0.27067,0.2152 0.34933,0.28474 0.40613,0.35921 0.8264,0.72281 1.2914,1.04335 0.57622,0.39642 1.18565,0.75467 1.82986,1.06453 0.51736,0.24884 1.05553,0.46822 1.61127,0.65423 1.41477,0.47356 2.91738,0.72033 4.4571,0.71055 1.25375,-0.008 2.48134,-0.18597 3.6545501,-0.51728 a 0.40004001,0.40004001 0 0 0 0,-0.002 0.40004001,0.40004001 0 0 0 0.002,0 c 0.63122,-0.17847 1.24161,-0.39891 1.82625,-0.65629 2.7621,-1.22244 5.09477,-3.34369 6.56859,-6.10144 a 0.40004001,0.40004001 0 0 0 0.0134,-0.004 c 0.82993003,-1.55538 1.33900003,-3.2768 1.50223003,-5.07204 a 5.0270834,5.0270834 0 0 1 -0.74355,-0.17617 z" /><path
         id="path61"
         style="fill:#facdab;fill-opacity:1;stroke:none;stroke-width:0.500062;stroke-linecap:round;stroke-linejoin:round;stroke-opacity:1;paint-order:markers fill stroke"
         d="m -7.9208169,292.42444 c 1.56561,0.1831 1.85157,-0.97066 1.85157,-1.68982 0,-0.33691 -0.1104,-0.64438 -0.30819,-0.87794 -0.23115,-0.27294 -0.75118,-0.43907 -1.18428,-0.43907 m -11.0934801,3.00683 c -1.56561,0.1831 -1.85157,-0.97066 -1.85157,-1.68982 0,-0.33691 0.1104,-0.64438 0.30819,-0.87794 0.23115,-0.27294 0.75118,-0.43907 1.18428,-0.43907"
         sodipodi:nodetypes="cssc" /><path
         id="path5"
         style="fill:none;fill-opacity:1;stroke:#2b5560;stroke-width:0.500062;stroke-linecap:round;stroke-linejoin:round;stroke-opacity:1;paint-order:markers fill stroke"
         d="m -7.9208169,292.42444 c 1.56561,0.1831 1.85157,-0.97066 1.85157,-1.68982 0,-0.33691 -0.1104,-0.64438 -0.30819,-0.87794 -0.23115,-0.27294 -0.75118,-0.43907 -1.18428,-0.43907 m -11.0934801,3.00683 c -1.56561,0.1831 -1.85157,-0.97066 -1.85157,-1.68982 0,-0.33691 0.1104,-0.64438 0.30819,-0.87794 0.23115,-0.27294 0.75118,-0.43907 1.18428,-0.43907"
         sodipodi:nodetypes="cssc" /><path
         id="path82"
         style="fill:#c3e6e0;fill-opacity:1;stroke:none;stroke-width:0.543594;stroke-linecap:round;stroke-linejoin:round;stroke-dasharray:none;stroke-opacity:1;paint-order:markers fill stroke"
         d="m -12.185227,282.09384 c -0.0368,-0.69467 -0.5196,-1.1405 -1.10278,-1.1405 -0.58318,0 -1.06596,0.44583 -1.10278,1.1405"
         sodipodi:nodetypes="csc" /><path
         id="path80"
         style="fill:#fefdff;fill-opacity:1;stroke:none;stroke-width:0.5;stroke-linecap:round;stroke-linejoin:round;stroke-dasharray:none;stroke-opacity:1;paint-order:markers fill stroke"
         d="m -7.7317569,286.50134 c -0.34228,-2.52403 -2.7496101,-4.41118 -5.5562501,-4.41112 -2.80664,-6e-5 -5.21398,1.88709 -5.55626,4.41112"
         sodipodi:nodetypes="ccc" /><path
         id="path79"
         style="fill:#c3e6e0;fill-opacity:1;stroke:none;stroke-width:0.5;stroke-linecap:round;stroke-linejoin:round;stroke-dasharray:none;stroke-opacity:1;paint-order:markers fill stroke"
         d="m -9.4491769,286.50132 h 1.71721 c -0.32478,-2.39497 -2.5086301,-4.21666 -5.1288801,-4.39663 0.12398,0.0342 0.22225,0.063 0.29093,0.0842 1.47627,0.45634 2.26449,1.4647 2.7445401,2.7988 z" /><path
         id="path83"
         style="fill:#9ad6d4;fill-opacity:1;stroke:none;stroke-width:0.320621;stroke-linecap:round;stroke-linejoin:round;stroke-dasharray:none;stroke-opacity:1;paint-order:markers fill stroke"
         d="m -12.743027,281.09906 a 0.99210393,0.96790057 0 0 0 -0.75603,0.94052 0.99210393,0.96790057 0 0 0 0.004,0.0543 h 1.31 c -0.0243,-0.45924 -0.24328,-0.80996 -0.55759,-0.99478 z" /><path
         id="path12"
         style="fill:none;fill-opacity:1;stroke:#2b5560;stroke-width:0.5;stroke-linecap:round;stroke-linejoin:round;stroke-dasharray:none;stroke-opacity:1;paint-order:markers fill stroke"
         d="m -7.7317569,286.50134 c -0.34228,-2.52403 -2.7496101,-4.41118 -5.5562501,-4.41112 -2.80664,-6e-5 -5.21398,1.88709 -5.55626,4.41112"
         sodipodi:nodetypes="ccc" /><path
         id="path13"
         style="fill:none;stroke:#2b5560;stroke-width:0.543594;stroke-linecap:round;stroke-linejoin:round;stroke-dasharray:none;stroke-opacity:1;paint-order:markers fill stroke"
         d="m -12.185227,282.09384 c -0.0368,-0.69467 -0.5196,-1.1405 -1.10278,-1.1405 -0.58318,0 -1.06596,0.44583 -1.10278,1.1405"
         sodipodi:nodetypes="csc" /><path
         id="path85"
         style="baseline-shift:baseline;display:inline;overflow:visible;vector-effect:none;fill:#ffc7aa;stroke-linecap:round;enable-background:accumulate;stop-color:#000000"
         d="m -8.5321469,300.91425 c -0.49625,9.7e-4 -1.0421,0.20416 -1.6113301,0.68945 -1.03993,0.88657 -1.25442,1.87464 -1.24609,2.78711 10e-4,0.0996 0.062,0.18887 0.15429,0.22657 0.4975,0.20489 0.84304,0.35312 1.4414101,0.35546 l -0.0332,-0.002 0.42383,0.0566 c 0.12884,0.2467 0.29855,0.43801 0.4707,0.60743 0.40779,0.40132 0.76591,0.65794 1.32031,0.66992 0.005,1.2e-4 0.009,1.2e-4 0.0137,0 0.25918,-0.007 0.51111,-0.0439 0.81446,-0.18555 0.30898,-0.14424 0.67826,-0.39551 1.18945,-0.83398 1.01806,-0.87322 1.17621,-2.10124 0.53711,-2.84961 -0.0746,-0.0873 -0.18226,-0.17431 -0.36328,-0.26563 -0.17586,-0.0887 -0.39898,-0.15803 -0.65235,-0.15234 -0.14425,0.003 -0.31581,0.0783 -0.48242,0.14258 l -0.20703,-0.24414 c -0.30654,-0.43741 -0.75605,-0.80382 -1.29687,-0.94141 -0.14896,-0.0379 -0.30633,-0.0609 -0.47266,-0.0606 z m -9.5117201,0 c 0.49625,9.7e-4 1.0421,0.20416 1.61133,0.68945 1.03993,0.88657 1.25442,1.87464 1.24609,2.78711 -0.001,0.0996 -0.062,0.18887 -0.15429,0.22657 -0.4975,0.20489 -0.84304,0.35312 -1.44141,0.35546 l 0.0332,-0.002 -0.42383,0.0566 c -0.12884,0.2467 -0.29855,0.43801 -0.4707,0.60743 -0.40779,0.40132 -0.76591,0.65794 -1.32031,0.66992 -0.005,1.2e-4 -0.009,1.2e-4 -0.0137,0 -0.25918,-0.007 -0.51111,-0.0439 -0.81446,-0.18555 -0.30898,-0.14424 -0.67826,-0.39551 -1.18945,-0.83398 -1.01806,-0.87322 -1.17621,-2.10124 -0.53711,-2.84961 0.0746,-0.0873 0.18226,-0.17431 0.36328,-0.26563 0.17586,-0.0887 0.39898,-0.15803 0.65235,-0.15234 0.14425,0.003 0.31581,0.0783 0.48242,0.14258 l 0.20703,-0.24414 c 0.30654,-0.43741 0.75605,-0.80382 1.29687,-0.94141 0.14896,-0.0379 0.30633,-0.0609 0.47266,-0.0606 z" /><path
         id="path25"
         style="baseline-shift:baseline;display:inline;overflow:visible;vector-effect:none;fill:#ffffff;fill-opacity:1;stroke-linecap:round;stroke-linejoin:round;paint-order:markers fill stroke;enable-background:accumulate;stop-color:#000000"
         sodipodi:type="inkscape:offset"
         inkscape:radius="0.26919323"
         inkscape:original="M 101.61523 86.5625 C 101.60023 86.5655 101.58366 86.567659 101.56836 86.568359 C 100.88895 86.598829 100.16722 87.071086 99.376953 87.722656 C 98.81025 88.189906 98.201722 88.733305 97.539062 89.234375 C 97.731172 89.370555 97.870127 89.557762 97.984375 89.757812 C 98.201002 90.137052 98.279417 90.497158 98.248047 90.830078 C 98.244547 90.867068 98.239122 90.903 98.232422 90.9375 C 98.365062 90.9334 98.49085 90.918525 98.615234 90.890625 C 99.037341 90.796125 99.523542 90.568321 100.33984 90.150391 L 100.90234 90.150391 C 100.76095 90.705801 100.67316 91.189251 100.57812 92.119141 C 101.04139 92.194571 101.53226 92.420518 102.01953 92.835938 C 103.10074 93.757698 103.37686 94.818174 103.38086 95.777344 C 103.86729 95.995984 104.42873 96.115164 105 96.115234 C 105.57148 96.115224 106.13261 95.996074 106.61914 95.777344 C 106.62314 94.818254 106.89928 93.757677 107.98047 92.835938 C 108.46775 92.420487 108.95862 92.194541 109.42188 92.119141 C 109.32688 91.189251 109.23906 90.705801 109.09766 90.150391 L 109.66211 90.150391 C 110.47823 90.568231 110.96272 90.796185 111.38477 90.890625 C 111.50879 90.918325 111.63536 90.9335 111.76758 90.9375 C 111.76058 90.90301 111.75495 90.867078 111.75195 90.830078 C 111.72055 90.497158 111.79899 90.137053 112.01562 89.757812 C 112.12977 89.557933 112.26907 89.370525 112.46094 89.234375 C 111.7981 88.733205 111.18792 88.190006 110.62109 87.722656 C 109.83083 87.071086 109.11105 86.598859 108.43164 86.568359 C 108.41604 86.568359 108.40007 86.5665 108.38477 86.5625 C 108.22437 86.65862 108.05849 86.747525 107.88672 86.828125 C 107.3823 87.933835 106.24932 88.646604 105 88.646484 C 103.75089 88.646374 102.61764 87.933655 102.11328 86.828125 C 101.94145 86.747515 101.77568 86.6587 101.61523 86.5625 z "
         d="m 101.55664,86.298828 c -0.79525,0.03566 -1.54849,0.554666 -2.351562,1.216797 -0.572763,0.472247 -1.176908,1.011489 -1.828125,1.503906 a 0.26922015,0.26922015 0 0 0 0.0059,0.433594 c 0.147116,0.104285 0.263689,0.256272 0.367188,0.4375 0.194102,0.339806 0.256207,0.640906 0.230469,0.914062 -0.0026,0.0273 -0.0065,0.05517 -0.01172,0.08203 a 0.26922015,0.26922015 0 0 0 0.271484,0.320312 c 0.147484,-0.0046 0.291329,-0.02278 0.433594,-0.05469 0.451162,-0.101005 0.955597,-0.342109 1.720702,-0.732422 h 0.19141 c -0.10659,0.465656 -0.19563,0.891457 -0.27539,1.671875 a 0.26922015,0.26922015 0 0 0 0.22461,0.292969 c 0.40888,0.06657 0.85452,0.267472 1.31054,0.65625 1.02086,0.870308 1.26184,1.829945 1.26563,2.738281 a 0.26922015,0.26922015 0 0 0 0.1582,0.24414 c 0.52371,0.235398 1.12178,0.361254 1.73047,0.361329 0.60889,-1.1e-5 1.20668,-0.12585 1.73047,-0.361329 a 0.26922015,0.26922015 0 0 0 0.1582,-0.24414 c 0.004,-0.908249 0.2448,-1.868001 1.26563,-2.738281 0.45603,-0.388807 0.90169,-0.589705 1.31054,-0.65625 a 0.26922015,0.26922015 0 0 0 0.22461,-0.292969 c -0.0797,-0.780426 -0.16879,-1.20622 -0.27539,-1.671875 h 0.19336 c 0.76466,0.390159 1.26742,0.633383 1.71875,0.734375 0.14164,0.03163 0.286,0.04827 0.4336,0.05273 a 0.26922015,0.26922015 0 0 0 0.27148,-0.322265 c -0.005,-0.02635 -0.01,-0.05222 -0.0117,-0.07617 a 0.26922015,0.26922015 0 0 0 0,-0.0039 c -0.0258,-0.273127 0.0364,-0.574247 0.23047,-0.914062 0.10331,-0.180906 0.22025,-0.333233 0.36719,-0.4375 a 0.26922015,0.26922015 0 0 0 0.006,-0.433594 c -0.6516,-0.492666 -1.25742,-1.031747 -1.83008,-1.503906 -0.80291,-0.661996 -1.55435,-1.181096 -2.34961,-1.216797 a 0.26922015,0.26922015 0 0 0 -0.0117,0 c 0.006,0 0.0122,0.0015 0.0215,0.0039 a 0.26922015,0.26922015 0 0 0 -0.20704,0.0293 c -0.15298,0.09168 -0.31142,0.175379 -0.47461,0.251953 a 0.26922015,0.26922015 0 0 0 -0.1289,0.132813 c -0.45938,1.006972 -1.49566,1.660266 -2.64258,1.660156 -1.14673,-1.01e-4 -2.18329,-0.653412 -2.64258,-1.660156 a 0.26922015,0.26922015 0 0 0 -0.1289,-0.132813 c -0.16327,-0.07659 -0.32163,-0.160227 -0.47461,-0.251953 a 0.26922015,0.26922015 0 0 0 -0.19141,-0.0332 c -0.002,3.94e-4 -0.007,5e-5 -0.006,0 z"
         transform="translate(-118.28801,208.57636)" /><circle
         style="fill:#2b5560;fill-opacity:1;stroke:none;stroke-width:0.401664;stroke-linecap:round;stroke-linejoin:round;stroke-dasharray:none;stroke-opacity:1;paint-order:markers fill stroke"
         id="circle45"
         cx="-13.327595"
         cy="300.50327"
         r="0.44999999" /><circle
         style="fill:#2b5560;fill-opacity:1;stroke:none;stroke-width:0.401664;stroke-linecap:round;stroke-linejoin:round;stroke-dasharray:none;stroke-opacity:1;paint-order:markers fill stroke"
         id="circle46"
         cx="-13.327595"
         cy="298.72009"
         r="0.44999999" /><path
         id="path44"
         style="baseline-shift:baseline;display:inline;overflow:visible;vector-effect:none;fill:#c1e6e2;fill-opacity:1;stroke-linecap:round;stroke-linejoin:round;paint-order:markers fill stroke;enable-background:accumulate;stop-color:#000000"
         d="m -15.923197,302.14429 c 0.58787,0.72183 0.74369,1.48287 0.74673,2.21123 a 0.26922015,0.26922015 0 0 0 0.15813,0.24443 c 0.52371,0.2354 1.12143,0.36115 1.73012,0.36122 0.6089,-10e-6 1.20686,-0.12574 1.73065,-0.36122 a 0.26922015,0.26922015 0 0 0 0.15813,-0.24443 c 0.004,-0.90825 0.24472,-1.86805 1.26555,-2.73833 0.4560301,-0.3888 0.9016601,-0.58974 1.3105201,-0.65629 a 0.26922015,0.26922015 0 0 0 0.22479,-0.29249 c -0.0797,-0.78042 -0.16884,-1.20659 -0.27544,-1.67225 h 0.19327 c 0.76466,0.39016 1.26743,0.63333 1.71876,0.73433 0.14164,0.0316 0.28597,0.0482 0.43357,0.0527 a 0.26922015,0.26922015 0 0 0 0.27181,-0.32195 c -0.005,-0.0263 -0.01,-0.0525 -0.0119,-0.0765 a 0.26922015,0.26922015 0 0 0 0,-0.004 c -0.0148,-0.15635 -4.9e-4,-0.32196 0.0506,-0.49868 -0.82475,-0.0424 -2.56309,-0.83163 -2.95072,-1.49344 l -0.24547,0.005 c 0,0 0.21916,2.85163 -1.4490001,4.48654 -2.04081,2.00014 -3.73047,1.41978 -5.06016,0.26407 z m -0.73639,-7.27397 a 0.26922015,0.26922015 0 0 0 -0.0661,0.005 l -5.2e-4,5.2e-4 c -0.002,1.4e-4 -0.004,-4.4e-4 -0.005,-5.2e-4 -0.20382,0.009 -0.40476,0.0504 -0.60461,0.1173 a 4.0925646,2.1982918 0 0 0 3.14089,1.82005 c -0.7636,-0.24348 -1.40173,-0.78813 -1.73529,-1.51929 a 0.26922015,0.26922015 0 0 0 -0.12919,-0.13281 c -0.16327,-0.0766 -0.32141,-0.15994 -0.47439,-0.25166 a 0.26922015,0.26922015 0 0 0 -0.12558,-0.0382 z m 6.7468801,0 a 0.26922015,0.26922015 0 0 0 -0.1291901,0.0382 c -0.15299,0.0917 -0.3112,0.17509 -0.47439,0.25166 a 0.26922015,0.26922015 0 0 0 -0.12919,0.13281 c -0.33353,0.73111 -0.97097,1.27577 -1.73427,1.51929 a 4.0925646,2.1982918 0 0 0 3.1398601,-1.82005 c -0.19975,-0.067 -0.4007,-0.10815 -0.60461,-0.1173 a 0.26922015,0.26922015 0 0 0 -0.01,0 c -6.7e-4,-4e-5 -0.001,0 -0.002,0 a 0.26922015,0.26922015 0 0 0 -0.0563,-0.005 z m -7.3881801,2.51147 c -1.19459,0.96338 -1.74669,1.28421 -3.08095,1.42575 0.0704,0.20516 0.0912,0.39527 0.0744,0.57361 -0.003,0.0273 -0.007,0.0553 -0.0119,0.0822 a 0.26922015,0.26922015 0 0 0 0.2713,0.31988 c 0.14748,-0.005 0.29181,-0.0224 0.43408,-0.0543 0.45116,-0.101 0.9552,-0.34246 1.72031,-0.73277 h 0.12196 c 0.15884,-0.42171 0.31991,-0.95073 0.47077,-1.61437 z" /><path
         id="path14"
         style="fill:#ecad92;fill-opacity:1;stroke:#2b5560;stroke-width:0.537791;stroke-linecap:round;stroke-linejoin:round;stroke-dasharray:none;stroke-opacity:1;paint-order:markers fill stroke"
         d="m -15.958337,295.22792 a 2.8860037,2.7781248 0 0 0 2.67012,1.72444 2.8860037,2.7781248 0 0 0 2.67064,-1.72444 c -0.79135,0.35036 -1.70118,0.53382 -2.67064,0.53382 -0.96946,0 -1.87877,-0.18346 -2.67012,-0.53382 z" /><path
         id="path16"
         style="fill:none;stroke:#2b5560;stroke-width:0.5;stroke-linecap:round;stroke-linejoin:miter;stroke-dasharray:none;stroke-opacity:1"
         d="m -8.8340169,298.90196 c 1.74955,0.89883 2.08147,1.02194 3.52309,0.75207 0.70941,-0.13279 0.97302,-1.11799 0.40928,-1.47795 -1.91448,-1.22242 -3.37965,-3.21156 -4.94377,-3.28172 m -7.8965801,4.0076 c -1.74955,0.89883 -2.08147,1.02194 -3.52309,0.75207 -0.70941,-0.13279 -0.97302,-1.11799 -0.40928,-1.47795 1.91448,-1.22242 3.37965,-3.21156 4.94377,-3.28172"
         sodipodi:nodetypes="cssc" /><path
         style="fill:none;stroke:#2b5560;stroke-width:0.5;stroke-linecap:round;stroke-linejoin:miter;stroke-dasharray:none;stroke-opacity:1"
         d="m -9.2668169,297.4981 c 0.36711,1.33358 0.50436,1.70324 0.66145,3.29075 m -8.7038401,-3.29075 c -0.36711,1.33358 -0.50436,1.70324 -0.66145,3.29075"
         id="path17"
         sodipodi:nodetypes="cc" /><path
         id="path4"
         style="fill:#f7e7d8;fill-opacity:1;stroke:none;stroke-width:0.264583px;stroke-linecap:butt;stroke-linejoin:miter;stroke-opacity:1"
         d="m -18.043997,300.91439 c -0.16633,-3.2e-4 -0.32337,0.0226 -0.47233,0.0605 -0.54082,0.1376 -0.99053,0.50414 -1.29707,0.94155 l -0.10181,0.11989 0.53279,0.38912 c 0.41713,-0.62021 0.93756,-1.05989 2.75074,-0.98082 -0.49727,-0.37088 -0.9743,-0.52934 -1.41232,-0.5302 z m 9.5119801,0 c 0.16633,-3.2e-4 0.32336,0.0226 0.47232,0.0605 0.54082,0.1376 0.99054,0.50414 1.29708,0.94155 l 0.1018,0.11989 -0.53278,0.38912 c -0.41714,-0.62021 -0.93757,-1.05989 -2.75074,-0.98082 0.49727,-0.37088 0.9743,-0.52934 1.41232,-0.5302 z" /><path
         id="path23"
         style="fill:none;fill-opacity:1;stroke:#2b5560;stroke-width:0.599249;stroke-linecap:round;stroke-linejoin:round;stroke-dasharray:none;stroke-opacity:1;paint-order:markers fill stroke"
         d="m -15.160967,304.56533 c 0.5586,0.27792 1.20866,0.42572 1.87275,0.42582 0.66427,-2e-5 1.31452,-0.14783 1.87327,-0.42582"
         sodipodi:nodetypes="ccc" /><path
         style="fill:#ecad92;fill-opacity:1;stroke:none;stroke-width:0.5;stroke-linecap:butt;stroke-linejoin:miter;stroke-dasharray:none;stroke-opacity:1"
         d="m -6.0550669,298.45721 c 0.22129,-0.38748 0.50406,-0.64637 1.0294,-0.59531 0.88167,0.0857 1.42365,0.92031 1.35186,1.52962 -0.11261,0.95566 -0.5361,1.12963 -1.09969,1.11621 -0.34422,-0.008 -0.51828,-0.21114 -0.74413,-0.37207 -0.29206,-0.2081 -0.7131,-0.15918 -0.76895,-0.75241 -0.0264,-0.28018 0.035,-0.582 0.23151,-0.92604 z m -14.4658801,0 c -0.22129,-0.38748 -0.50406,-0.64637 -1.0294,-0.59531 -0.88167,0.0857 -1.42365,0.92031 -1.35186,1.52962 0.11261,0.95566 0.5361,1.12963 1.09969,1.11621 0.34422,-0.008 0.51828,-0.21114 0.74413,-0.37207 0.29206,-0.2081 0.7131,-0.15918 0.76895,-0.75241 0.0264,-0.28018 -0.035,-0.582 -0.23151,-0.92604 z"
         id="path19"
         sodipodi:nodetypes="ssssass" /><ellipse
         style="fill:#df8367;fill-opacity:1;stroke:none;stroke-width:0.575556;stroke-linecap:round;stroke-linejoin:round;stroke-dasharray:none;stroke-opacity:1;paint-order:markers fill stroke"
         id="path46"
         cx="-5.4720345"
         cy="299.03674"
         rx="0.63981414"
         ry="0.58444959" /><path
         id="ellipse52"
         d="m -4.8322069,299.03675 c 0,0.32278 -0.28645,0.58445 -0.63981,0.58445 -0.35336,0 -0.63982,-0.26167 -0.63982,-0.58445 0,-0.32278 0.28646,-0.58445 0.63982,-0.58445 0.35336,0 0.63981,0.26167 0.63981,0.58445 z m -16.9116001,0 c 0,0.32278 0.28645,0.58445 0.63981,0.58445 0.35336,0 0.63981,-0.26167 0.63981,-0.58445 0,-0.32278 -0.28645,-0.58445 -0.63981,-0.58445 -0.35336,0 -0.63981,0.26167 -0.63981,0.58445 z"
         style="fill:#cd866e;fill-opacity:1;stroke:none;stroke-width:0.575556;stroke-linecap:round;stroke-linejoin:round;stroke-dasharray:none;stroke-opacity:1;paint-order:markers fill stroke" /><path
         id="path47"
         style="fill:#fec7a3;fill-opacity:1;stroke:none;stroke-width:0.264583px;stroke-linecap:butt;stroke-linejoin:miter;stroke-opacity:1"
         d="m -5.2117069,297.8567 c -0.40908,0.0206 -0.64973,0.26144 -0.84336,0.60048 -0.0458,0.0802 -0.084,0.15825 -0.11575,0.23409 l 0.0786,0.0904 c 0.25219,0.3328 0.45953,0.69621 0.78548,0.51263 0.29987,-0.16889 0.17509,-0.41609 0.0822,-0.50591 -0.093,-0.0898 0.0373,-0.30427 0.17157,-0.16536 0.21062,0.21788 0.13591,0.4749 0.10697,0.60306 -0.0289,0.12816 -0.0134,0.40308 0.28835,0.53123 0.30179,0.12816 0.89452,-0.0661 0.89452,-0.0661 l 0.0842,-0.25631 c 2e-5,-1.9e-4 -3e-5,-3.3e-4 0,-5.2e-4 0.002,-0.0141 0.003,-0.0284 0.005,-0.0429 0.0718,-0.60931 -0.47018,-1.44394 -1.35185,-1.52962 -0.0657,-0.006 -0.1276,-0.008 -0.18604,-0.005 z m -16.1526001,0 c 0.40908,0.0206 0.64973,0.26144 0.84336,0.60048 0.0458,0.0802 0.084,0.15825 0.11575,0.23409 l -0.0786,0.0904 c -0.25219,0.3328 -0.45953,0.69621 -0.78548,0.51263 -0.29987,-0.16889 -0.17509,-0.41609 -0.0822,-0.50591 0.093,-0.0898 -0.0373,-0.30427 -0.17157,-0.16536 -0.21062,0.21788 -0.13591,0.4749 -0.10697,0.60306 0.0289,0.12816 0.0134,0.40308 -0.28835,0.53123 -0.30179,0.12816 -0.89452,-0.0661 -0.89452,-0.0661 l -0.0842,-0.25631 c -2e-5,-1.9e-4 3e-5,-3.3e-4 0,-5.2e-4 -0.002,-0.0141 -0.003,-0.0284 -0.005,-0.0429 -0.0718,-0.60931 0.47018,-1.44394 1.35185,-1.52962 0.0657,-0.006 0.1276,-0.008 0.18604,-0.005 z" /><path
         style="fill:none;fill-opacity:1;stroke:#2b5560;stroke-width:0.5;stroke-linecap:butt;stroke-linejoin:miter;stroke-dasharray:none;stroke-opacity:1"
         d="m -6.0550669,298.45721 c 0.22129,-0.38748 0.50406,-0.64637 1.0294,-0.59531 0.88167,0.0857 1.42365,0.92031 1.35186,1.52962 -0.11261,0.95566 -0.5361,1.12963 -1.09969,1.11621 -0.34422,-0.008 -0.51828,-0.21114 -0.74413,-0.37207 -0.29206,-0.2081 -0.7131,-0.15918 -0.76895,-0.75241 -0.0264,-0.28018 0.035,-0.582 0.23151,-0.92604 z m -14.4658801,0 c -0.22129,-0.38748 -0.50406,-0.64637 -1.0294,-0.59531 -0.88167,0.0857 -1.42365,0.92031 -1.35186,1.52962 0.11261,0.95566 0.5361,1.12963 1.09969,1.11621 0.34422,-0.008 0.51828,-0.21114 0.74413,-0.37207 0.29206,-0.2081 0.7131,-0.15918 0.76895,-0.75241 0.0264,-0.28018 -0.035,-0.582 -0.23151,-0.92604 z"
         id="path49"
         sodipodi:nodetypes="ssssass" /><path
         id="path56"
         style="baseline-shift:baseline;display:inline;overflow:visible;vector-effect:none;fill:#facdab;fill-opacity:1;stroke-linecap:round;stroke-linejoin:round;paint-order:markers fill stroke;enable-background:accumulate;stop-color:#000000"
         sodipodi:type="inkscape:offset"
         inkscape:radius="0.23984718"
         inkscape:original="M 105 77.646484 C 102.61897 77.646484 100.62252 78.671739 99.693359 80.324219 L 99.693359 82.158203 C 99.693359 83.680724 100.27737 84.857249 101.22852 85.671875 C 102.17966 86.486501 103.50983 86.935548 105 86.935547 C 106.49017 86.935545 107.82034 86.486505 108.77148 85.671875 C 109.72263 84.857245 110.30665 83.680723 110.30664 82.158203 L 110.30664 80.324219 C 109.37688 78.671887 107.37735 77.646484 105 77.646484 z "
         d="m 105,77.40625 c -2.44988,0 -4.5353,1.057305 -5.515625,2.800781 a 0.23987117,0.23987117 0 0 0 -0.03125,0.117188 v 1.833984 c 0,1.583855 0.618175,2.838022 1.619145,3.695313 1.00197,0.858166 2.38938,1.322266 3.92773,1.322265 1.53835,-2e-6 2.92576,-0.464095 3.92773,-1.322265 1.00097,-0.857294 1.61916,-2.111457 1.61915,-3.695313 v -1.833984 a 0.23987117,0.23987117 0 0 0 -0.0312,-0.117188 C 109.53459,78.463579 107.44632,77.40625 105,77.40625 Z"
         transform="translate(-118.28801,208.57636)" /><path
         id="path37"
         style="fill:#fb9483;stroke-width:0.293946;stroke-linecap:round;stroke-linejoin:round;paint-order:markers fill stroke"
         d="m -6.8124069,290.99837 c -0.0517,0.38909 -0.38672,0.70452 -0.74836,0.70451 -0.36164,0 -0.61293,-0.31542 -0.56126,-0.70451 0.0517,-0.38908 0.38671,-0.7045 0.74835,-0.7045 0.36164,0 0.61293,0.31542 0.56127,0.7045 z m -12.9512001,0 c 0.0517,0.38909 0.38671,0.70452 0.74836,0.70451 0.36164,0 0.61292,-0.31542 0.56126,-0.70451 -0.0517,-0.38908 -0.38671,-0.7045 -0.74835,-0.7045 -0.36165,0 -0.61294,0.31542 -0.56127,0.7045 z" /><path
         id="path55"
         style="fill:#f7e7d8;fill-opacity:1;stroke:none;stroke-width:0.264583px;stroke-linecap:butt;stroke-linejoin:miter;stroke-opacity:1"
         d="m -17.696217,287.45372 c -0.44942,0.38003 -0.8244,0.82628 -1.10743,1.32963 a 0.23987117,0.23987117 0 0 0 -0.031,0.11731 v 1.83399 c 0,1.58386 0.61807,2.8381 1.61903,3.69539 0.10226,0.0876 0.2083,0.17081 0.31833,0.25011 -1.48202,-1.89872 -1.72011,-4.54893 -0.79892,-7.22643 z" /><path
         id="path53"
         style="fill:#ecad92;fill-opacity:1;stroke:none;stroke-width:0.264583px;stroke-linecap:butt;stroke-linejoin:miter;stroke-opacity:1"
         d="m -13.288217,285.98249 c -2.44988,0 -4.5351,1.05739 -5.51543,2.80086 a 0.23987117,0.23987117 0 0 0 -0.031,0.11731 v 0.37879 c 2.28196,-2.17254 3.25288,-2.4703 5.5945,-2.48874 2.30981,-0.0182 3.4567801,0.70028 4.7728401,1.97507 0.22687,3.00009 -0.0202,4.19757 -1.9616401,5.4746 -1.86035,1.2237 -4.73892,0.65976 -5.69681,0.12403 -0.66755,-0.37335 -1.24452,-0.86966 -1.67432,-1.29863 0.21846,0.5802 0.51928,1.12243 0.90331,1.61437 0.96814,0.69762 2.2273,1.07177 3.60856,1.07177 1.53836,0 2.92595,-0.46371 3.9279301,-1.32188 1.00096,-0.8573 1.61903,-2.11153 1.61902,-3.69539 v -1.83399 a 0.23987117,0.23987117 0 0 0 -0.031,-0.11731 c -0.98103,-1.74345 -3.0696201,-2.80086 -5.5159401,-2.80086 z" /><path
         id="path1"
         style="fill:none;stroke:#2b5560;stroke-width:0.5;stroke-linecap:round;stroke-linejoin:round;stroke-dasharray:none;stroke-opacity:1;paint-order:markers fill stroke"
         d="m -18.844267,288.8826 c 0,0.52916 0,1.05833 0,1.85207 0,3.175 2.47572,5.02707 5.55626,5.02707 3.08054,-10e-6 5.5562601,-1.85209 5.5562501,-5.02709 0,-0.79372 0,-1.32289 0,-1.85205"
         sodipodi:nodetypes="csssc" /><path
         style="baseline-shift:baseline;display:inline;overflow:visible;vector-effect:none;fill:#2b5560;fill-opacity:1;stroke:none;stroke-linecap:round;enable-background:accumulate;stop-color:#000000"
         d="m -15.770427,289.64537 c -0.30332,-0.0501 -0.61568,0.072 -0.8356,0.2799 -0.14882,0.13868 -0.26611,0.3101 -0.3491,0.49538 -0.0491,0.12416 0.0382,0.27634 0.17011,0.29683 0.10667,0.0225 0.21894,-0.0449 0.25553,-0.14641 0.0911,-0.18168 0.2114,-0.3684 0.40472,-0.45291 0.19124,-0.081 0.41819,-0.0243 0.57269,0.10722 0.10285,0.0837 0.18571,0.19564 0.22075,0.32469 0.0455,0.12531 0.21117,0.18137 0.32375,0.11015 0.0963,-0.0539 0.13637,-0.18117 0.0943,-0.28213 -0.11822,-0.38019 -0.46432,-0.67289 -0.85711,-0.73272 z m 4.96484,0 c -0.40878,0.0618 -0.77008,0.37918 -0.87034,0.78214 -0.0269,0.12985 0.0831,0.26415 0.21558,0.2639 0.10779,0.005 0.20777,-0.0769 0.22889,-0.18174 0.0739,-0.20355 0.27484,-0.3418 0.48267,-0.38092 0.15153,-0.0303 0.3191,-0.007 0.44104,0.0933 0.13259,0.10282 0.2139,0.25383 0.28864,0.40034 0.0708,0.1121 0.2434801,0.1325 0.3384101,0.0398 0.0814,-0.0715 0.0946,-0.19984 0.0376,-0.29025 -0.14895,-0.30302 -0.3954101,-0.57576 -0.7216101,-0.68665 -0.14096,-0.0482 -0.29352,-0.0636 -0.44086,-0.04 z"
         id="path58" /><path
         style="baseline-shift:baseline;display:inline;overflow:visible;vector-effect:none;fill:#df805a;fill-opacity:1;stroke-linecap:round;enable-background:accumulate;stop-color:#000000"
         d="m -15.813397,288.21954 c -0.32305,-0.0337 -0.66301,0.0502 -0.92084,0.25094 -0.079,0.0673 -0.15822,0.14695 -0.18245,0.2514 -0.033,0.18201 0.24458,0.27309 0.32595,0.10703 0.0915,-0.12386 0.23847,-0.19525 0.38425,-0.23453 0.11575,-0.0303 0.23697,-0.0397 0.35598,-0.0272 0.18874,0.0318 0.26664,-0.25111 0.10224,-0.32762 -0.0201,-0.0109 -0.0424,-0.0177 -0.0651,-0.02 z m 5.05078,0 c -0.18524,0.008 -0.21219,0.30005 -0.0313,0.34168 0.0869,0.0117 0.17476,-0.007 0.26204,0.005 0.19802,0.0193 0.40242,0.092 0.5351301,0.2461 0.0683,0.17319 0.34576,0.11192 0.33869,-0.0673 -0.004,-0.0936 -0.0728,-0.16651 -0.13436,-0.2306 -0.16754,-0.15589 -0.3887601,-0.24538 -0.6121001,-0.2842 -0.11818,-0.0195 -0.23899,-0.0229 -0.3581,-0.0104 z"
         id="path59" /><path
         id="path65"
         style="baseline-shift:baseline;display:inline;overflow:visible;vector-effect:none;fill:#df8367;fill-opacity:1;stroke-linecap:round;stroke-linejoin:round;paint-order:markers fill stroke;enable-background:accumulate;stop-color:#000000"
         d="m -13.649951,290.78892 c -0.087,0.0498 -0.16339,0.12776 -0.19069,0.22634 -0.0239,0.0774 -0.002,0.16395 0.047,0.22686 0.0268,0.0324 0.061,0.0788 0.10955,0.0656 0.0335,-0.006 0.0307,-0.0448 0.0315,-0.0708 -2e-4,-0.047 0.0227,-0.0921 0.0558,-0.12454 0.0745,-0.0719 0.17777,-0.10659 0.27957,-0.11369 0.0254,-0.002 0.0591,-0.002 0.0879,0 0.1018,0.007 0.20503,0.0418 0.27957,0.11369 0.0331,0.0324 0.056,0.0776 0.0558,0.12454 8.7e-4,0.026 -0.002,0.0645 0.0315,0.0708 0.0485,0.0131 0.0827,-0.0332 0.10955,-0.0656 0.0491,-0.0629 0.0709,-0.14948 0.047,-0.22686 -0.0273,-0.0986 -0.10366,-0.17655 -0.19069,-0.22634 -0.21373,-0.12418 -0.53963,-0.12418 -0.75336,0 z"
         sodipodi:nodetypes="ccccccccccccccc" /><path
         id="path66"
         style="fill:#2b5560;fill-opacity:1;stroke:none;stroke-width:0.264583px;stroke-linecap:butt;stroke-linejoin:miter;stroke-opacity:1"
         d="m -14.850397,291.8643 c -0.20121,0.004 -0.2519,0.2052 -0.23977,0.37931 0.0234,0.33585 0.28731,1.65054 1.81694,1.65054 1.52963,0 1.79406,-1.31469 1.81746,-1.65054 0.0155,-0.22286 -0.0723,-0.48962 -0.44649,-0.33177 -0.37418,0.15786 -0.57722,0.24908 -1.37097,0.24908 -0.79375,0 -0.9968,-0.0912 -1.37098,-0.24908 -0.0819,-0.0345 -0.14985,-0.0487 -0.20619,-0.0475 z" /><path
         style="baseline-shift:baseline;display:inline;overflow:visible;vector-effect:none;fill:#fb9483;fill-opacity:1;stroke-linecap:round;stroke-linejoin:round;paint-order:markers fill stroke;enable-background:accumulate;stop-color:#000000"
         d="m -13.288011,292.7274 c -0.33592,2.3e-4 -0.66208,0.13131 -0.89844,0.34961 -0.0449,0.0404 -0.044,0.11116 0.002,0.15039 0.19496,0.16904 0.47777,0.28711 0.92968,0.28711 0.42338,0 0.69469,-0.10598 0.88672,-0.25781 0.0462,-0.0373 0.0499,-0.10639 0.008,-0.14844 -0.23845,-0.23585 -0.57703,-0.38067 -0.92796,-0.38086 z"
         id="path72"
         sodipodi:nodetypes="cccsccc" /><path
         id="path74"
         style="baseline-shift:baseline;display:inline;overflow:visible;fill:#eb9a66;fill-opacity:1;stroke:#2b5560;stroke-width:0.5;stroke-linecap:round;stroke-linejoin:round;stroke-dasharray:none;stroke-opacity:1;paint-order:markers fill stroke;enable-background:accumulate;stop-color:#000000"
         d="m -14.695877,286.10445 c 0.37446,1.60267 1.92918,1.86737 2.89233,1.39216 -0.58305,-0.24469 -0.89438,-0.68972 -0.71159,-1.47795"
         sodipodi:nodetypes="ccc" /><path
         id="path6"
         style="fill:#c3e6e0;fill-opacity:1;stroke:none;stroke-width:0.5;stroke-linecap:round;stroke-linejoin:round;stroke-dasharray:none;stroke-opacity:1;paint-order:markers fill stroke"
         d="m -13.287997,284.22321 c -3.175,0 -6.87918,2.01355 -6.08543,4.92396 0.0821,0.30093 0.16779,-0.0227 0.26458,0.26459 0.79375,-2.11667 3.08302,-3.43961 5.82085,-3.43961 2.73384,0 5.0270801,1.32294 5.8208301,3.43961 0.0984,-0.2846 0.18333,0.0333 0.26458,-0.26458 0.79375,-2.91042 -2.9104101,-4.92397 -6.0854101,-4.92397 z"
         sodipodi:nodetypes="sscscss" /><path
         id="path76"
         style="fill:#9ad6d4;fill-opacity:1;stroke:none;stroke-width:0.5;stroke-linecap:round;stroke-linejoin:round;stroke-dasharray:none;stroke-opacity:1;paint-order:markers fill stroke"
         d="m -10.142667,286.63878 c 1.2564601,0.59088 2.2164401,1.54936 2.6752901,2.77296 0.0984,-0.2846 0.18333,0.0333 0.26458,-0.26459 0.53264,-1.95301 -0.95986,-3.50194 -2.9589901,-4.30981 a 6.4545588,4.8234096 0 0 1 0.1235,0.93896 6.4545588,4.8234096 0 0 1 -0.10438,0.86248 z" /><path
         id="path77"
         style="fill:none;fill-opacity:1;stroke:#2b5560;stroke-width:0.5;stroke-linecap:round;stroke-linejoin:round;stroke-dasharray:none;stroke-opacity:1;paint-order:markers fill stroke"
         d="m -13.287997,284.22321 c -3.175,0 -6.87918,2.01355 -6.08543,4.92396 0.0821,0.30093 0.16779,-0.0227 0.26458,0.26459 0.79375,-2.11667 3.08302,-3.43961 5.82085,-3.43961 2.73384,0 5.0270801,1.32294 5.8208301,3.43961 0.0984,-0.2846 0.18333,0.0333 0.26458,-0.26458 0.79375,-2.91042 -2.9104101,-4.92397 -6.0854101,-4.92397 z"
         sodipodi:nodetypes="sscscss" /><path
         id="path81"
         style="fill:none;stroke:none;stroke-width:0.543594;stroke-linecap:round;stroke-linejoin:round;stroke-dasharray:none;paint-order:markers fill stroke"
         d="m -12.185227,282.09384 c -0.0368,-0.69467 -0.5196,-1.1405 -1.10278,-1.1405 -0.58318,0 -1.06596,0.44583 -1.10278,1.1405"
         sodipodi:nodetypes="csc" /><path
         id="path2"
         d="m -6.2567569,302.8498 c -0.34967,0.11579 -0.73523,0.4055 -1.12109,0.93164 -0.45344,0.61829 -1.04331,1.61974 -0.57032,2.03515 0.42179,0.37044 1.50048,-0.17503 2.30664,-1.02539 0.68174,-0.71912 0.75831,-1.4959 0.28907,-1.82812 -0.2412,-0.17077 -0.55463,-0.22908 -0.9043,-0.11328 z m -14.0625001,0 c 0.34967,0.11579 0.73523,0.4055 1.12109,0.93164 0.45344,0.61829 1.04331,1.61974 0.57032,2.03515 -0.42179,0.37044 -1.50048,-0.17503 -2.30664,-1.02539 -0.68174,-0.71912 -0.75831,-1.4959 -0.28907,-1.82812 0.2412,-0.17077 0.55463,-0.22908 0.9043,-0.11328 z"
         style="fill:#ecad92;fill-opacity:1;stroke-width:0.500062;stroke-linecap:round;stroke-linejoin:round;paint-order:markers fill stroke" /><path
         id="path15"
         style="fill:#ecad92;fill-opacity:1;stroke:none;stroke-width:0.264583px;stroke-linecap:butt;stroke-linejoin:miter;stroke-opacity:1"
         d="m -16.254437,301.89315 c 0.41314,1.18879 -0.0212,1.75826 -0.58447,1.92391 l -0.0879,0.98185 c 0.0263,0.0697 0.0749,0.13208 0.17002,0.17363 0.58296,-0.006 0.92546,-0.15301 1.41593,-0.35501 0.0923,-0.0377 0.15324,-0.12721 0.15452,-0.22686 0.004,-0.42519 -0.0405,-0.8668 -0.19431,-1.3069 l -5.1e-4,-0.001 -0.33848,-0.6134 z m 5.93286,0 c -0.41314,1.18879 0.0212,1.75826 0.5844701,1.92391 l 0.0879,0.98185 c -0.0263,0.0697 -0.0749,0.13208 -0.17002,0.17363 -0.5829601,-0.006 -0.9254601,-0.15301 -1.4159301,-0.35501 -0.0923,-0.0377 -0.15324,-0.12721 -0.15452,-0.22686 -0.004,-0.42519 0.0405,-0.8668 0.19431,-1.3069 l 5.1e-4,-0.001 0.33848,-0.6134 z" /><path
         id="path26"
         style="baseline-shift:baseline;display:inline;overflow:visible;vector-effect:none;fill:#ecad92;fill-opacity:1;stroke-linecap:round;enable-background:accumulate;stop-color:#000000"
         d="m -17.117957,303.38039 c -0.051,9.8e-4 -0.1007,0.0314 -0.12144,0.0842 -0.15583,0.38955 -0.44944,0.76781 -0.73432,0.99787 -0.0351,0.029 -0.0524,0.0737 -0.0465,0.11886 0.0733,0.5866 -0.16269,0.98811 -0.42582,1.23455 -0.0617,0.0578 -0.11777,0.0836 -0.20153,0.14056 -0.10887,0.0738 -0.055,0.24416 0.0765,0.24236 l 0.15348,-0.003 h 5.1e-4 c 0.27925,-0.11294 0.51651,-0.30819 0.7736,-0.56121 0.17215,-0.16941 0.34194,-0.36102 0.47078,-0.60771 l 0.16536,-0.0222 0.0651,-1.45107 c 0.002,-0.0411 -0.0155,-0.0804 -0.047,-0.10697 l -0.0408,-0.0357 c -0.026,-0.022 -0.0572,-0.0316 -0.0879,-0.031 z m 7.6599001,0 c 0.051,9.8e-4 0.1007,0.0314 0.12144,0.0842 0.15583,0.38955 0.44944,0.76781 0.73432,0.99787 0.0351,0.029 0.0524,0.0737 0.0465,0.11886 -0.0733,0.5866 0.16269,0.98811 0.42581,1.23455 0.0617,0.0578 0.11777,0.0836 0.20154,0.14056 0.10886,0.0738 0.055,0.24416 -0.0765,0.24236 l -0.15348,-0.003 h -5.2e-4 c -0.27924,-0.11294 -0.5165,-0.30819 -0.77359,-0.56121 -0.17215,-0.16941 -0.34194,-0.36102 -0.47078,-0.60771 l -0.16536,-0.0222 -0.0651,-1.45107 c -0.002,-0.0411 0.0155,-0.0804 0.047,-0.10697 l 0.0408,-0.0357 c 0.026,-0.022 0.0572,-0.0316 0.0879,-0.031 z" /><path
         id="path48"
         style="baseline-shift:baseline;display:inline;overflow:visible;vector-effect:none;fill:#f7e7d8;fill-opacity:1;stroke-linecap:round;enable-background:accumulate;stop-color:#000000"
         d="m -20.523437,302.01355 c -0.25337,-0.006 -0.47681,0.0637 -0.65267,0.15245 -0.18102,0.0913 -0.28869,0.17832 -0.36329,0.26561 -0.30651,0.35893 -0.18093,0.88078 -0.11377,1.36831 -0.14409,-1.25004 1.4945,-2.17215 2.7193,-0.33426 l 0.21601,-0.10955 c 0,0 -0.2091,-0.40961 -1.38028,-1.22215 -0.14831,-0.0582 -0.29744,-0.11748 -0.4253,-0.12041 z m 14.4708501,0 c 0.25337,-0.006 0.47682,0.0637 0.65268,0.15245 0.18102,0.0913 0.28868,0.17832 0.36328,0.26561 0.30651,0.35893 0.18094,0.88078 0.11378,1.36831 0.14408,-1.25004 -1.49451,-2.17215 -2.71931,-0.33426 l -0.216,-0.10955 c 0,0 0.2091,-0.40961 1.38027,-1.22215 0.14831,-0.0582 0.29744,-0.11748 0.4253,-0.12041 z"
         sodipodi:nodetypes="cscccccc" /><path
         style="fill:none;stroke:#2b5560;stroke-width:0.5;stroke-linecap:round;stroke-linejoin:miter;stroke-dasharray:none;stroke-opacity:1"
         d="m -7.8084969,303.39667 c 1.20296,-2.11666 2.50975,-1.24606 2.75246,-0.96186 0.64034,0.74983 0.48439,1.97608 -0.53744,2.85254 -1.02182,0.87645 -1.47934,1.00791 -2.01331,1.02203 -0.56704,-0.0107 -0.91509,-0.26934 -1.32705,-0.67477 -0.41196,-0.40542 -0.87265,-0.84066 -0.56137,-2.25434 m -9.2723201,0.0164 c -1.20296,-2.11667 -2.50975,-1.24607 -2.75246,-0.96187 -0.64034,0.74983 -0.48439,1.97609 0.53744,2.85254 1.02182,0.87646 1.47934,1.00792 2.01331,1.02203 0.56704,-0.0107 0.91509,-0.26934 1.32705,-0.67476 0.41196,-0.40542 0.87265,-0.84066 0.56137,-2.25434"
         id="path18"
         sodipodi:nodetypes="csscsc" /><path
         style="fill:none;stroke:#2b5560;stroke-width:0.5;stroke-linecap:round;stroke-linejoin:miter;stroke-dasharray:none;stroke-opacity:1"
         d="m -6.6580869,302.07738 c -0.60767,-1.01588 -1.96361,-1.77322 -3.4867501,-0.47469 -1.11373,0.94949 -1.30984,2.00185 -1.26949,2.98055 0.71592,0.29695 1.03406,0.42709 1.8734801,0.38504 m -10.3770801,-2.8909 c 0.60767,-1.01588 1.96361,-1.77322 3.48675,-0.47469 1.11373,0.94949 1.30984,2.00185 1.26949,2.98055 -0.71592,0.29695 -1.03406,0.42709 -1.87348,0.38504"
         id="path22"
         sodipodi:nodetypes="cscc" /><path
         id="path38"
         d="m -8.8820669,291.79349 c 0,0.3342 -0.42273,0.60512 -0.94421,0.60512 -0.5214701,0 -0.9442101,-0.27092 -0.9442101,-0.60512 0,-0.33419 0.42274,-0.60511 0.9442101,-0.60511 0.52148,0 0.94421,0.27092 0.94421,0.60511 z m -8.8118801,0 c 0,0.3342 0.42273,0.60512 0.94421,0.60512 0.52147,0 0.94421,-0.27092 0.94421,-0.60512 0,-0.33419 -0.42274,-0.60511 -0.94421,-0.60511 -0.52148,0 -0.94421,0.27092 -0.94421,0.60511 z"
         style="fill:#fb9483;fill-opacity:1;stroke:none;stroke-width:0.240673;stroke-linecap:round;stroke-linejoin:round;stroke-dasharray:none;stroke-opacity:1;paint-order:markers fill stroke" /><circle
         style="fill:#eca5e3;fill-opacity:1;stroke:none;stroke-width:0.799999;stroke-linecap:round;stroke-linejoin:round;stroke-dasharray:none;stroke-opacity:1;paint-order:markers fill stroke"
         id="path131"
         cx="1.2871209"
         cy="296.22476"
         r="4" /><path
         style="fill:#fd9a35;fill-opacity:1;stroke:none;stroke-width:0.264583px;stroke-linecap:round;stroke-linejoin:round;stroke-opacity:1"
         d="M 1.1213431,295.43881 0.10989313,293.53284 1.1622731,293.29898 Z"
         id="path136"
         sodipodi:nodetypes="cccc" /><path
         style="fill:#fdac52;fill-opacity:1;stroke:none;stroke-width:0.264583px;stroke-linecap:round;stroke-linejoin:round;stroke-opacity:1"
         d="m 1.0453431,295.52066 -1.91766997,-1.06407 0.91207,-0.90036 z"
         id="path137"
         sodipodi:nodetypes="cccc" /><path
         style="fill:#fbd05a;fill-opacity:1;stroke:none;stroke-width:0.264583px;stroke-linecap:round;stroke-linejoin:round;stroke-opacity:1"
         d="m 1.0745731,295.62589 -2.19245,0.006 0.23972003,-1.14008 z"
         id="path138"
         sodipodi:nodetypes="cccc" /><path
         id="path3"
         style="fill:#e78edc;fill-opacity:1;stroke:none;stroke-width:0.264583px;stroke-linecap:butt;stroke-linejoin:miter;stroke-opacity:1"
         d="m 2.8699731,295.83047 c -0.49064,0.007 -0.93775,0.2264 -1.45314,0.35191 -2.16577997,0.52744 -2.74146,-0.22322 -4.12947,0.10439 0.0337,2.1849 1.81460003,3.93839 3.99976,3.93826 2.10868,-7e-5 3.85515,-1.63711 3.99149,-3.74137 -0.76788,-0.3979 -1.5909,-0.66435 -2.40864,-0.65319 z"
         sodipodi:nodetypes="sscccs" /><path
         id="path144"
         style="baseline-shift:baseline;display:inline;overflow:visible;vector-effect:none;fill:#fefcfd;fill-opacity:1;stroke-linecap:round;stroke-linejoin:round;enable-background:accumulate;stop-color:#000000"
         sodipodi:type="inkscape:offset"
         inkscape:radius="0.14326715"
         inkscape:original="M 117.3418 50.152344 C 117.36081 50.409449 117.43132 50.729221 117.65039 51.001953 C 117.9224 51.340577 118.42966 51.630859 119.43359 51.630859 C 120.43732 51.630859 120.93898 51.340247 121.20703 51.001953 C 121.42406 50.727935 121.49177 50.406269 121.50977 50.152344 L 117.3418 50.152344 z "
         d="m 117.3418,50.009766 a 0.14328148,0.14328148 0 0 0 -0.14258,0.152343 c 0.0203,0.274374 0.0959,0.626031 0.33984,0.929688 0.30144,0.375256 0.86299,0.681641 1.89453,0.68164 1.03139,0 1.58749,-0.306453 1.88477,-0.68164 a 0.14328148,0.14328148 0 0 0 0.002,0 c 0.24191,-0.305427 0.31285,-0.658997 0.33203,-0.929688 a 0.14328148,0.14328148 0 0 0 -0.14257,-0.152343 z"
         transform="translate(-118.28801,245.61803)" /><path
         id="path147"
         style="baseline-shift:baseline;display:inline;overflow:visible;vector-effect:none;fill:#c1dfe1;fill-opacity:1;stroke:none;stroke-linecap:round;stroke-linejoin:round;enable-background:accumulate;stop-color:#000000"
         d="m 3.2038031,295.62789 c -1.29395,1.63976 -2.63119997,1.59432 -4.07675997,0.90021 0.0356,0.0618 0.0766,0.12282 0.12403,0.1819 0.30143,0.37526 0.86291,0.68161 1.89445997,0.68161 1.03138,0 1.58735,-0.30642 1.88464,-0.68161 a 0.14328148,0.14328148 0 0 0 0.002,0 c 0.24191,-0.30543 0.31309,-0.65897 0.33228,-0.92966 a 0.14328148,0.14328148 0 0 0 -0.14262,-0.15245 z" /><path
         style="fill:none;stroke:#2b5560;stroke-width:0.3;stroke-linecap:round;stroke-linejoin:round;stroke-dasharray:none;stroke-opacity:1"
         d="m 4.3629131,294.67036 c -0.84267,0.0184 -0.98392,0.55297 -0.98392,0.93431 0,0.56224 -0.16536,1.79421 -2.23242,1.79421 -2.06705997,0 -2.24896,-1.2237 -2.24896,-1.80248 0,-0.57877 0.33073003,-2.3027 2.3027,-2.3027 v 2.31097"
         id="path132"
         sodipodi:nodetypes="cssscc" /><path
         style="fill:none;stroke:#2b5560;stroke-width:0.3;stroke-linecap:round;stroke-linejoin:round;stroke-dasharray:none;stroke-opacity:1"
         d="m -1.1023869,295.63774 h 4.47311"
         id="path133" /><path
         style="fill:none;stroke:#2b5560;stroke-width:0.3;stroke-linecap:round;stroke-linejoin:round;stroke-dasharray:none;stroke-opacity:1"
         d="m 1.1195431,295.58047 -1.92152997,-1.02662"
         id="path134"
         sodipodi:nodetypes="cc" /><path
         style="fill:none;stroke:#2b5560;stroke-width:0.3;stroke-linecap:round;stroke-linejoin:round;stroke-dasharray:none;stroke-opacity:1"
         d="M 1.1341631,295.63774 0.08202313,293.53345"
         id="path135"
         sodipodi:nodetypes="cc" /><circle
         style="fill:#fefcfd;fill-opacity:1;stroke:#2b5560;stroke-width:0.3;stroke-linecap:round;stroke-linejoin:round;stroke-dasharray:none;stroke-opacity:1;paint-order:markers fill stroke"
         id="path139"
         cx="-0.035816129"
         cy="298.49854"
         r="0.67799479" /><circle
         style="fill:#2b5560;fill-opacity:1;stroke:none;stroke-width:0.0825069;stroke-linecap:round;stroke-linejoin:round;stroke-dasharray:none;stroke-opacity:1;paint-order:markers fill stroke"
         id="circle140"
         cx="-0.035816129"
         cy="298.49854"
         r="0.24999999" /><path
         style="fill:none;stroke:#2b5560;stroke-width:0.3;stroke-linecap:round;stroke-linejoin:round;stroke-dasharray:none;stroke-opacity:1"
         d="M 0.48924313,298.019 1.0700831,297.43815"
         id="path142" /><circle
         style="fill:#fefcfd;fill-opacity:1;stroke:#2b5560;stroke-width:0.3;stroke-linecap:round;stroke-linejoin:round;stroke-dasharray:none;stroke-opacity:1;paint-order:markers fill stroke"
         id="circle142"
         cx="-2.3406487"
         cy="298.49854"
         r="0.67799479"
         transform="scale(-1,1)" /><circle
         style="fill:#2b5560;fill-opacity:1;stroke:none;stroke-width:0.0825069;stroke-linecap:round;stroke-linejoin:round;stroke-dasharray:none;stroke-opacity:1;paint-order:markers fill stroke"
         id="circle143"
         cx="-2.3406487"
         cy="298.49854"
         r="0.24999999"
         transform="scale(-1,1)" /><path
         style="fill:none;stroke:#2b5560;stroke-width:0.3;stroke-linecap:round;stroke-linejoin:round;stroke-dasharray:none;stroke-opacity:1"
         d="m 1.8156631,298.019 -0.58084,-0.58085"
         id="path143" /><circle
         style="fill:none;fill-opacity:1;stroke:#306f7e;stroke-width:0.5;stroke-linecap:round;stroke-linejoin:round;stroke-dasharray:none;stroke-opacity:1;paint-order:markers fill stroke"
         id="circle3"
         cx="1.2871209"
         cy="296.22476"
         r="4" /><circle
         style="fill:#fccc55;fill-opacity:1;stroke:none;stroke-width:0.799999;stroke-linecap:round;stroke-linejoin:round;stroke-dasharray:none;stroke-opacity:1;paint-order:markers fill stroke"
         id="circle10"
         cx="-2.0106544"
         cy="282.69797"
         r="4" /><path
         id="path10"
         style="fill:#fcb555;fill-opacity:1;stroke:none;stroke-width:0.264583px;stroke-linecap:butt;stroke-linejoin:miter;stroke-opacity:1"
         d="m -0.42779687,282.30364 c -0.49064,0.007 -0.93775003,0.2264 -1.45314003,0.35192 -2.16578,0.52744 -2.74146,-0.22322 -4.12947,0.10439 0.0337,2.1849 1.8146,3.93839 3.99976,3.93826 2.10868003,-7e-5 3.85515,-1.63711 3.99149,-3.74138 -0.76788,-0.39789 -1.59089997,-0.66435 -2.40863997,-0.65319 z"
         sodipodi:nodetypes="sscccs" /><path
         style="fill:#fefcfd;fill-opacity:1;stroke:#2b5560;stroke-width:0.3;stroke-linecap:round;stroke-linejoin:round;stroke-dasharray:none;stroke-opacity:1"
         d="m 116.299,35.368179 c -0.53204,0 -0.94129,-0.38587 -0.94129,-0.760048 -0.69574,0.0877 -1.12254,0.385873 -1.90013,0.982216 0.0847,0.417076 0.35775,0.790086 0.59635,1.099146 l 0.58465,-0.280633 -0.076,2.332763 c 0,0 1.04653,0.169549 1.16346,1.233616 l 0.57296,0.01169 0.57296,-0.01169 c 0.11693,-1.064067 1.16346,-1.233616 1.16346,-1.233616 l -0.076,-2.332763 0.58465,0.280633 c 0.2386,-0.30906 0.51165,-0.68207 0.59635,-1.099146 -0.77759,-0.596343 -1.20439,-0.894516 -1.90013,-0.982216 0,0.374178 -0.40925,0.760048 -0.94129,0.760048 z"
         id="path7"
         sodipodi:nodetypes="cccccccc"
         inkscape:path-effect="#path-effect7"
         inkscape:original-d="m 116.299,35.368179 c -0.53204,0 -0.94129,-0.38587 -0.94129,-0.760048 -0.69574,0.0877 -1.12254,0.385873 -1.90013,0.982216 0.0847,0.417076 0.35775,0.790086 0.59635,1.099146 l 0.58465,-0.280633 -0.076,2.332763 c 0,0 1.04653,0.169549 1.16346,1.233616 l 0.57296,0.01169"
         transform="translate(-118.30964,245.6754)" /><path
         style="fill:#e87024;fill-opacity:1;stroke:none;stroke-width:0.05;stroke-linecap:butt;stroke-linejoin:miter;stroke-dasharray:none;stroke-opacity:1"
         d="m 116.2873,37.73602 c 0,0 -0.26171,-0.173744 -0.66066,-0.596343 -0.39463,-0.418027 0.15786,-1.157613 0.66066,-0.479415 0.5028,-0.678198 1.05529,0.06139 0.66066,0.479415 -0.39895,0.422599 -0.66066,0.596343 -0.66066,0.596343 z"
         id="path8"
         sodipodi:nodetypes="csc"
         inkscape:path-effect="#path-effect10"
         inkscape:original-d="m 116.2873,37.73602 c 0,0 -0.26171,-0.173744 -0.66066,-0.596343 -0.39463,-0.418027 0.15786,-1.157613 0.66066,-0.479415"
         transform="translate(-118.30964,245.6754)" /><circle
         style="fill:none;fill-opacity:1;stroke:#306f7e;stroke-width:0.5;stroke-linecap:round;stroke-linejoin:round;stroke-dasharray:none;stroke-opacity:1;paint-order:markers fill stroke"
         id="circle11"
         cx="-2.0106544"
         cy="282.69797"
         r="4" /><circle
         style="fill:#5bc3d0;fill-opacity:1;stroke:none;stroke-width:0.799999;stroke-linecap:round;stroke-linejoin:round;stroke-dasharray:none;stroke-opacity:1;paint-order:markers fill stroke"
         id="circle37"
         cx="-24.531107"
         cy="282.63007"
         r="4" /><path
         id="path39"
         style="fill:#4db1ce;fill-opacity:1;stroke:none;stroke-width:0.264583px;stroke-linecap:butt;stroke-linejoin:miter;stroke-opacity:1"
         d="m -22.944137,282.23551 c -0.49064,0.007 -0.937747,0.2264 -1.453137,0.35192 -2.16578,0.52744 -2.74146,-0.22322 -4.12947,0.10439 0.0337,2.18489 1.8146,3.93839 3.99976,3.93826 2.108677,-8e-5 3.855147,-1.63711 3.991487,-3.74138 -0.76788,-0.3979 -1.5909,-0.66435 -2.40864,-0.65319 z"
         sodipodi:nodetypes="sscccs" /><rect
         style="fill:#c9e9e3;fill-opacity:1;stroke:none;stroke-width:0.3;stroke-linecap:round;stroke-linejoin:round;stroke-dasharray:none;stroke-opacity:1;paint-order:markers fill stroke"
         id="rect36"
         width="3.1129851"
         height="3.8299706"
         x="-26.08761"
         y="281.93109"
         rx="0.60000002"
         ry="0.80000001" /><rect
         style="fill:#fefcfd;fill-opacity:1;stroke:none;stroke-width:0.3;stroke-linecap:round;stroke-linejoin:round;stroke-dasharray:none;stroke-opacity:1;paint-order:markers fill stroke"
         id="rect35"
         width="2.4375772"
         height="3.5157778"
         x="-26.08761"
         y="281.93109"
         rx="0.60000002"
         ry="0.80000001" /><path
         id="path27"
         style="fill:none;stroke:#2b5560;stroke-width:0.264583px;stroke-linecap:round;stroke-linejoin:miter;stroke-opacity:1"
         d="m -25.515214,284.73931 h 0.42728 m -0.42728,-0.60082 h 0.42728 m -0.42728,-0.60083 h 0.42728 m -0.42728,-0.60082 h 0.42728" /><path
         style="fill:#efcf7d;fill-opacity:1;stroke:#2b5560;stroke-width:0.3;stroke-linecap:butt;stroke-linejoin:round;stroke-dasharray:none;stroke-opacity:1"
         d="m -25.437504,281.0836 c 0.0526,-0.46783 0.21266,-0.51945 0.48526,-0.766 -0.002,-0.32257 -0.0877,-0.81852 0.40926,-0.81852 0.49694,0 0.41145,0.49595 0.40925,0.81852 0.2726,0.24655 0.43265,0.29817 0.48527,0.766"
         id="path28"
         sodipodi:nodetypes="ccc" /><rect
         style="fill:#65c5d8;fill-opacity:1;stroke:#2b5560;stroke-width:0.3;stroke-linecap:round;stroke-linejoin:round;stroke-dasharray:none;stroke-opacity:1;paint-order:markers fill stroke"
         id="rect12"
         width="2.5342093"
         height="0.84749526"
         x="-25.798243"
         y="281.08359"
         rx="0.30000001"
         ry="0.30000001" /><rect
         style="fill:none;fill-opacity:1;stroke:#2b5560;stroke-width:0.3;stroke-linecap:round;stroke-linejoin:round;stroke-dasharray:none;stroke-opacity:1;paint-order:markers fill stroke"
         id="rect13"
         width="3.1129851"
         height="3.8299706"
         x="-26.08761"
         y="281.93109"
         rx="0.60000002"
         ry="0.80000001" /><circle
         style="fill:none;fill-opacity:1;stroke:#306f7e;stroke-width:0.4;stroke-linecap:round;stroke-linejoin:round;stroke-dasharray:none;stroke-opacity:1;paint-order:markers fill stroke"
         id="circle36"
         cx="-24.531107"
         cy="282.63007"
         r="4" /><circle
         style="fill:#fa8355;fill-opacity:1;stroke:none;stroke-width:0.799999;stroke-linecap:round;stroke-linejoin:round;stroke-dasharray:none;stroke-opacity:1;paint-order:markers fill stroke"
         id="circle22"
         cx="-27.677675"
         cy="296.14532"
         r="4" /><path
         id="path24"
         style="fill:#e57449;fill-opacity:1;stroke:none;stroke-width:0.264583px;stroke-linecap:butt;stroke-linejoin:miter;stroke-opacity:1"
         d="m -26.090697,295.75078 c -0.49064,0.007 -0.93775,0.2264 -1.45314,0.35192 -2.16578,0.52744 -2.74146,-0.22322 -4.12947,0.10439 0.0337,2.18489 1.8146,3.93839 3.99976,3.93826 2.10868,-8e-5 3.85515,-1.63711 3.99149,-3.74138 -0.76788,-0.3979 -1.5909,-0.66435 -2.40864,-0.65319 z"
         sodipodi:nodetypes="sscccs" /><circle
         style="fill:none;fill-opacity:1;stroke:#306f7e;stroke-width:0.4;stroke-linecap:round;stroke-linejoin:round;stroke-dasharray:none;stroke-opacity:1;paint-order:markers fill stroke"
         id="circle24"
         cx="-27.677675"
         cy="296.14532"
         r="4" /><g
         id="g42"
         transform="translate(-112.81802,245.65578)"><path
           id="circle40"
           style="opacity:1;fill:#eddc91;fill-opacity:1;stroke:#2b5560;stroke-width:0.3;stroke-linecap:butt;stroke-linejoin:round;stroke-dasharray:none;stroke-opacity:1;paint-order:markers fill stroke"
           d="m 84.898177,50.280135 -1.170471,1.170988 h -5.17e-4 a 0.83901751,0.83901751 0 0 0 -0.27957,-0.04806 0.83901751,0.83901751 0 0 0 -0.839225,0.839225 0.83901751,0.83901751 0 0 0 0.839225,0.839225 0.83901751,0.83901751 0 0 0 0.839226,-0.839225 0.83901751,0.83901751 0 0 0 -0.05736,-0.303857 l 1.163236,-1.163753 z" /><circle
           style="opacity:1;fill:#fefcfd;fill-opacity:1;stroke:#2b5560;stroke-width:0.3;stroke-linecap:butt;stroke-linejoin:round;stroke-dasharray:none;stroke-opacity:1;paint-order:markers fill stroke"
           id="path41"
           cx="83.461441"
           cy="52.214931"
           r="0.23678409" /></g><path
         id="path9"
         style="fill:#fbd365;fill-opacity:1;stroke:none;stroke-width:0.1;stroke-linejoin:round;stroke-dasharray:none;paint-order:markers fill stroke"
         d="m -26.823783,293.55363 a 1.678035,1.678035 0 0 0 -0.838709,0.22428 5.0071812,5.0071812 0 0 0 2.3797,2.11821 1.678035,1.678035 0 0 0 0.136943,-0.66455 1.678035,1.678035 0 0 0 -1.677934,-1.67794 z" /><path
         id="circle21"
         style="fill:#62c0d9;fill-opacity:1;stroke:none;stroke-width:0.3;stroke-linecap:butt;stroke-linejoin:round;stroke-dasharray:none;stroke-opacity:1;paint-order:markers fill stroke"
         d="m -28.267101,294.37735 c -0.153306,0.25858 -0.234333,0.5536 -0.234611,0.85421 5.6e-5,0.92668 0.75126,1.67788 1.677934,1.67794 0.332498,3e-5 0.65751,-0.0987 0.933793,-0.28371 -1.077927,-0.37427 -1.943499,-1.19299 -2.377116,-2.24844 z"
         sodipodi:nodetypes="ccscc" /><circle
         style="fill:none;fill-opacity:1;stroke:#2b5560;stroke-width:0.3;stroke-linecap:butt;stroke-linejoin:round;stroke-dasharray:none;stroke-opacity:1;paint-order:markers fill stroke"
         id="path40"
         cx="-26.823761"
         cy="295.23141"
         r="1.678035" /><path
         id="path20"
         style="fill:#fba353;fill-opacity:1;stroke:#2b5560;stroke-width:0.3;stroke-linejoin:round;stroke-dasharray:none;stroke-opacity:1;paint-order:markers fill stroke"
         d="m -27.661975,293.77842 a 1.678035,1.678035 0 0 0 -0.605131,0.59893 3.981921,3.981921 0 0 0 2.377116,2.24845 1.678035,1.678035 0 0 0 0.607198,-0.72968 5.0071812,5.0071812 0 0 1 -2.379183,-2.1177 z" /><ellipse
         style="fill:#fffcce;fill-opacity:1;stroke:none;stroke-width:0.3;stroke-linejoin:round;stroke-dasharray:none;stroke-opacity:1;paint-order:markers fill stroke"
         id="path21"
         cx="-97.488358"
         cy="278.76938"
         rx="0.31832683"
         ry="0.21910807"
         transform="rotate(-14.09286)" /></g></g></svg>
